<svg width="150" height="150" viewBox="0 0 150 150" fill="none" xmlns="http://www.w3.org/2000/svg">
<path d="M0 4C0 1.79086 1.79086 0 4 0H146C148.209 0 150 1.79086 150 4V146C150 148.209 148.209 150 146 150H4C1.79086 150 0 148.209 0 146V4Z" fill="url(#paint0_linear_23_6)"/>
<path d="M38.4727 85.9648C37.9518 86.8242 37.3268 87.6185 36.5977 88.3477C35.4258 89.5195 34.0716 90.4245 32.5352 91.0625C30.9987 91.6875 29.4036 92 27.75 92C26.0964 92 24.5013 91.6875 22.9648 91.0625C21.4284 90.4245 20.0742 89.5195 18.9023 88.3477C17.7305 87.1758 16.8255 85.8216 16.1875 84.2852C15.5625 82.7487 15.25 81.1536 15.25 79.5C15.25 77.8464 15.5625 76.2513 16.1875 74.7148C16.8255 73.1784 17.7305 71.8242 18.9023 70.6523C20.0742 69.4805 21.4284 68.582 22.9648 67.957C24.5013 67.319 26.0964 67 27.75 67C29.4036 67 30.9987 67.319 32.5352 67.957C34.0716 68.582 35.4258 69.4805 36.5977 70.6523C37.5742 71.6289 38.362 72.7292 38.9609 73.9531L34.4883 76.1602C34.1367 75.457 33.6615 74.7995 33.0625 74.1875C31.5911 72.7292 29.8203 72 27.75 72C25.6797 72 23.9089 72.7357 22.4375 74.207C20.9792 75.6654 20.25 77.4297 20.25 79.5C20.25 81.5703 20.9792 83.3411 22.4375 84.8125C23.9089 86.2708 25.6797 87 27.75 87C29.8203 87 31.5911 86.2643 33.0625 84.793C33.5052 84.3503 33.8763 83.8815 34.1758 83.3867L38.4727 85.9648ZM45.3477 92H40.3477V67H45.3477V73.3477C45.7253 73.1263 46.1159 72.931 46.5195 72.7617C47.7435 72.2539 49.0195 72 50.3477 72C51.6758 72 52.9518 72.2539 54.1758 72.7617C55.3997 73.2695 56.4805 73.9922 57.418 74.9297C58.3555 75.8672 59.0781 76.9479 59.5859 78.1719C60.0938 79.3958 60.3477 80.6719 60.3477 82V92H55.3477V82C55.3477 80.6198 54.8594 79.4414 53.8828 78.4648C52.9062 77.4883 51.7279 77 50.3477 77C48.9674 77 47.7891 77.4883 46.8125 78.4648C45.8359 79.4414 45.3477 80.6198 45.3477 82V92ZM67.9062 79.5L76.4219 79.4805C75.7969 78.3216 74.8789 77.5599 73.668 77.1953C73.1862 77.0521 72.7044 76.9805 72.2227 76.9805C71.4284 76.9805 70.6471 77.1888 69.8789 77.6055C69.0195 78.0742 68.362 78.7057 67.9062 79.5ZM67.9258 84.5C68.5898 85.6589 69.5664 86.4271 70.8555 86.8047C71.3372 86.9479 71.819 87.0195 72.3008 87.0195C73.0951 87.0195 73.8763 86.8112 74.6445 86.3945C75.0221 86.1862 75.3607 85.9518 75.6602 85.6914L79.0391 89.3438C78.4401 89.9036 77.776 90.3854 77.0469 90.7891C75.875 91.4141 74.6315 91.7982 73.3164 91.9414C72.9518 91.9805 72.5938 92 72.2422 92C71.2917 92 70.3542 91.8633 69.4297 91.5898C68.1536 91.2122 67.0013 90.6068 65.9727 89.7734C64.944 88.9401 64.1107 87.944 63.4727 86.7852C62.8477 85.6133 62.4635 84.3698 62.3203 83.0547C62.2812 82.6901 62.2617 82.332 62.2617 81.9805C62.2617 81.0299 62.3984 80.0924 62.6719 79.168C63.0495 77.8919 63.6549 76.7396 64.4883 75.7109C65.3216 74.6823 66.3177 73.8555 67.4766 73.2305C68.6484 72.5924 69.8919 72.2018 71.207 72.0586C71.5716 72.0195 71.9297 72 72.2812 72C73.2318 72 74.1693 72.1367 75.0938 72.4102C76.3698 72.7878 77.5221 73.3932 78.5508 74.2266C79.5794 75.0599 80.4062 76.0625 81.0312 77.2344C81.6693 78.3932 82.0599 79.6302 82.2031 80.9453C82.2422 81.3099 82.2617 81.681 82.2617 82.0586C82.2617 82.8659 82.1641 83.6667 81.9688 84.4609L67.9258 84.5ZM92.6328 82V92H87.6328V82H83.8828V77H87.6328C87.6328 75.6719 87.8867 74.3958 88.3945 73.1719C88.9023 71.9479 89.625 70.8672 90.5625 69.9297C91.5 68.9922 92.5807 68.2695 93.8047 67.7617C95.0286 67.2539 96.3047 67 97.6328 67V72C96.2526 72 95.0742 72.4883 94.0977 73.4648C93.1211 74.4414 92.6328 75.6198 92.6328 77H97.6328V82H92.6328ZM108.668 82V92H103.668V82H99.918V77H103.668C103.668 75.6719 103.922 74.3958 104.43 73.1719C104.938 71.9479 105.66 70.8672 106.598 69.9297C107.535 68.9922 108.616 68.2695 109.84 67.7617C111.064 67.2539 112.34 67 113.668 67V72C112.288 72 111.109 72.4883 110.133 73.4648C109.156 74.4414 108.668 75.6198 108.668 77H113.668V82H108.668ZM126.168 97C127.548 97 128.727 96.5117 129.703 95.5352C130.68 94.5586 131.168 93.3802 131.168 92V90.6523C130.79 90.8737 130.4 91.069 129.996 91.2383C128.772 91.7461 127.496 92 126.168 92C124.84 92 123.564 91.7461 122.34 91.2383C121.116 90.7305 120.035 90.0078 119.098 89.0703C118.16 88.1328 117.438 87.0521 116.93 85.8281C116.422 84.6042 116.168 83.3281 116.168 82V72H121.168V82C121.168 83.3802 121.656 84.5586 122.633 85.5352C123.609 86.5117 124.788 87 126.168 87C127.548 87 128.727 86.5117 129.703 85.5352C130.68 84.5586 131.168 83.3802 131.168 82V72H136.168V92C136.168 93.3281 135.914 94.6042 135.406 95.8281C134.898 97.0521 134.176 98.1328 133.238 99.0703C132.301 100.008 131.22 100.73 129.996 101.238C128.772 101.746 127.496 102 126.168 102H123.668V97H126.168Z" fill="black"/>
<path d="M82.9436 48.016C83.2736 47.9635 83.4302 48.05 83.7266 48.1322C85.5099 48.6276 83.7693 52.0984 82.6744 52.4332C81.285 52.5678 80.7975 51.7798 81.0745 50.7761C81.1849 50.4003 81.4851 50.0411 81.6283 49.6782C81.9247 48.9289 81.7258 48.1787 82.9436 48.016Z" fill="#FC5F29"/>
<path d="M64.1193 41.0926C64.1629 41.0047 64.2247 40.9106 64.2869 40.8343C66.0714 38.6442 68.6631 37.3205 71.4811 37.0309C71.7039 36.9816 72.0439 37.0192 72.2784 37.0089C74.9142 36.8933 77.7311 37.9081 79.7238 39.6825C80.1266 40.0411 80.6362 40.4678 80.9084 40.943C84.4775 40.8544 87.7622 42.408 89.6806 45.5267C92.3924 49.9356 90.7445 55.4358 86.3789 57.91C85.848 58.2108 85.1482 58.4185 84.676 58.7327L84.6343 58.7607C84.5898 61.8296 84.6267 64.9928 84.6277 68.0665L84.6305 71.0521C84.6315 72.1908 84.7212 74.1004 84.3621 75.1012C84.1019 75.8267 83.6231 76.4645 83.0407 77L82.086 74.6224C82.1951 74.4566 82.3196 74.1436 82.3985 73.9525C81.9326 71.5569 77.5713 70.4428 75.559 70.1133C75.0171 70.0245 74.4399 69.9982 73.8923 69.9147C73.0749 69.9333 72.0586 69.8787 71.2478 69.9283C68.6811 70.113 64.9898 70.8036 63.1716 72.7959C62.5664 73.5217 62.6107 74.18 62.9837 74.7459L61.7342 76.7231C60.3509 75.2873 60.3732 73.8954 60.375 72.034L60.3746 69.863L60.3732 61.3094C57.5933 60.1994 55.2151 57.5882 54.3999 54.6471C54.0357 53.5847 54.0407 52.6062 54.0051 51.5248C53.9375 49.4721 54.5423 47.6816 55.5385 45.9179C55.9297 45.2253 56.4048 44.6373 57.0214 44.1266C57.2719 43.919 57.5243 43.5417 57.7987 43.3419C58.971 42.454 60.2907 41.8387 61.6966 41.4588C61.9356 41.3942 62.7255 41.2442 62.9403 41.2216C63.4332 41.1696 63.5793 41.2415 64.1193 41.0926ZM62.683 43.981C60.8481 44.2444 59.1829 45.4935 58.0871 46.9897C56.8636 48.6459 56.3416 50.7374 56.6385 52.7928C56.9581 54.9925 58.5099 57.2904 60.3769 58.4C60.376 57.5903 60.1891 55.8567 60.6826 55.178C60.8389 54.963 61.3098 54.7963 61.5639 54.8226C62.7727 54.9152 62.7023 55.8249 62.7008 56.7356L62.6966 58.4415C62.692 60.0012 62.6924 61.5611 62.6922 63.121C62.6921 63.3028 62.6855 63.4843 62.6708 63.6658C63.6143 63.1495 64.1538 63.0661 65.0294 62.6971C64.9491 61.2898 65.0296 59.8364 64.9987 58.4232C64.9823 57.6755 65.0081 56.915 64.9998 56.1663C64.9969 55.9039 65.016 55.6501 65.0522 55.3879C65.1765 54.4869 66.2219 54.187 66.8748 54.7259C67.2311 55.0472 67.2485 55.5506 67.2681 56.0051C67.2794 57.1799 67.2924 58.3888 67.2746 59.5634C67.2631 60.3217 67.298 61.3006 67.25 62.0339C67.7384 61.9501 68.2275 61.871 68.7173 61.7961C68.9837 61.7551 69.3888 61.7145 69.6258 61.6314C69.5594 60.0673 69.6127 58.134 69.6115 56.5411L69.6096 54.5138C69.6095 54.0043 69.5233 53.0443 69.8476 52.6362C69.9827 52.4662 70.344 52.2811 70.5398 52.175C71.1611 52.1901 71.7357 52.5508 71.8065 53.226C71.9482 54.578 71.8637 55.959 71.8687 57.3183C71.8699 57.6448 71.7958 57.9912 71.8036 58.3202C71.8443 59.0137 71.9662 60.838 71.8336 61.4817C72.7879 61.476 73.6833 61.4677 74.6345 61.5658C74.8641 61.5895 75.2633 61.5952 75.4652 61.6316L75.4568 59.0322C75.4543 58.0447 75.2373 56.2752 76.6532 56.3199C77.3784 56.3428 77.7684 56.944 77.7453 57.6511C77.7551 58.9592 77.7618 60.2691 77.7428 61.5769C77.7407 61.7291 77.7337 61.8853 77.7392 62.0371C78.4933 62.2953 79.6564 62.2236 80.095 63.0165C80.2128 63.229 80.2521 63.7506 80.1471 63.9642C79.504 65.2342 78.1047 64.2751 77.1118 64.1471C76.1963 64.0291 75.2782 63.8754 74.3651 63.7824C73.46 63.6904 72.3424 63.6854 71.4399 63.746C69.6829 63.8551 67.9447 64.1767 66.2614 64.704C65.6892 64.8783 65.2502 65.0067 64.6811 65.2359C63.9858 65.5158 63.3733 65.9091 62.6941 66.1804C62.6967 67.2625 62.7406 69.1243 62.6601 70.1597C63.4721 69.683 64.1798 69.2673 65.0503 68.9207C68.2658 67.6415 71.8485 67.3481 75.2547 67.783C76.1113 67.8925 76.9558 67.9977 77.7975 68.2283C79.5023 68.6551 80.8681 69.2908 82.3752 70.2238C82.45 67.2076 82.4016 64.094 82.4016 61.0688L82.3982 58.8112C82.395 58.3102 82.2852 57.3906 82.6321 57.0468C82.9336 56.7482 83.3595 56.7057 83.7436 56.6035C84.4049 56.3957 84.9225 56.0719 85.5035 55.7113C87.683 54.3576 89.1084 51.9655 88.686 49.3066C88.4701 47.9471 88.0049 46.8211 87.0982 45.7843C85.7785 44.257 83.9154 43.3375 81.9278 43.2326C80.4179 43.1639 78.819 43.451 77.5816 44.3759C76.9499 44.848 76.3346 45.4232 75.6022 44.6256C75.3846 44.3934 75.2707 44.0791 75.2874 43.7576C75.3452 42.6413 77.0819 42.0268 77.9536 41.68C76.2297 40.1451 74.4457 39.5951 72.1659 39.6743C70.0368 39.7318 68.1453 40.5029 66.7066 42.1045C65.4637 43.488 64.6314 44.9589 64.5226 46.8549C64.4941 47.3527 64.5115 47.92 64.4028 48.4079C64.277 48.7575 63.8269 49.0819 63.4377 49.0975C63.1267 49.1122 62.823 48.9972 62.5959 48.7786C62.3455 48.5373 62.2218 48.2245 62.2136 47.8743C62.1816 46.5108 62.2561 45.29 62.683 43.981Z" fill="url(#paint1_linear_23_6)"/>
<path d="M18.2812 98.4675C18.2847 98.4744 18.3103 98.4983 18.3582 98.5393C18.406 98.5769 18.4727 98.6196 18.5581 98.6675C18.647 98.7153 18.7546 98.7581 18.8811 98.7957C19.0076 98.8333 19.1511 98.8521 19.3118 98.8521C19.5818 98.8521 19.8364 98.8008 20.0757 98.6982C20.3149 98.5957 20.5354 98.4607 20.7371 98.2932C20.9421 98.1257 21.125 97.9343 21.2856 97.719C21.4497 97.5037 21.5881 97.2832 21.7009 97.0576C21.8137 96.832 21.9009 96.6099 21.9624 96.3911C22.0239 96.1724 22.0547 95.9758 22.0547 95.8015C22.0547 95.593 22.0239 95.4119 21.9624 95.2581C21.9009 95.1042 21.8171 94.9778 21.7112 94.8787C21.6086 94.7795 21.4856 94.7061 21.342 94.6582C21.2019 94.6104 21.0498 94.5864 20.8857 94.5864C20.561 94.5864 20.238 94.6445 19.9167 94.7607C19.5989 94.8735 19.2896 95.0291 18.9888 95.2273C18.688 95.4255 18.3992 95.6597 18.1223 95.9297C17.8455 96.1963 17.5874 96.4834 17.3481 96.791C17.1089 97.0986 16.8918 97.4199 16.697 97.7549C16.5022 98.0864 16.3347 98.4163 16.1946 98.7444C16.0579 99.0725 15.9519 99.3921 15.8767 99.7031C15.8015 100.011 15.7639 100.294 15.7639 100.554C15.7639 100.855 15.8066 101.139 15.8921 101.405C15.981 101.672 16.1125 101.904 16.2869 102.103C16.4612 102.301 16.6782 102.456 16.938 102.569C17.2012 102.685 17.5071 102.743 17.8557 102.743C18.1667 102.743 18.4897 102.696 18.8247 102.6C19.1597 102.504 19.4929 102.35 19.8245 102.138C20.1594 101.927 20.4893 101.653 20.814 101.318C21.1387 100.98 21.4497 100.57 21.7471 100.088L21.9316 100.231C21.6104 100.754 21.2754 101.193 20.9268 101.549C20.5781 101.904 20.2295 102.19 19.8809 102.405C19.5322 102.624 19.1887 102.779 18.8503 102.872C18.512 102.967 18.1907 103.015 17.8865 103.015C17.449 103.015 17.0627 102.937 16.7278 102.779C16.3928 102.625 16.1125 102.422 15.887 102.169C15.6614 101.916 15.4905 101.629 15.3743 101.308C15.2615 100.983 15.2051 100.653 15.2051 100.318C15.2051 100.031 15.2444 99.7253 15.323 99.4006C15.405 99.0759 15.5195 98.7461 15.6665 98.4111C15.8135 98.0762 15.9895 97.7412 16.1946 97.4062C16.4031 97.0713 16.6338 96.7517 16.8867 96.4475C17.1431 96.1399 17.4199 95.8545 17.7173 95.5913C18.0146 95.3281 18.3257 95.1008 18.6504 94.9094C18.9785 94.7146 19.3152 94.5625 19.6604 94.4531C20.009 94.3403 20.3628 94.2839 20.7217 94.2839C20.9473 94.2839 21.1626 94.3164 21.3677 94.3813C21.5762 94.4429 21.759 94.542 21.9163 94.6787C22.0735 94.8154 22.1982 94.9915 22.2905 95.2068C22.3828 95.4187 22.429 95.675 22.429 95.9758C22.429 96.1775 22.3982 96.3962 22.3367 96.6321C22.2751 96.8679 22.1846 97.1055 22.0649 97.3447C21.9487 97.5806 21.8052 97.8096 21.6343 98.0317C21.4668 98.2539 21.2754 98.4504 21.0601 98.6213C20.8481 98.7888 20.6123 98.9238 20.3525 99.0264C20.0962 99.1289 19.8228 99.1802 19.5322 99.1802C19.2212 99.1802 18.9495 99.1289 18.717 99.0264C18.488 98.9204 18.2915 98.7905 18.1274 98.6367L18.2812 98.4675ZM24.6387 100.605C24.6523 100.609 24.666 100.611 24.6797 100.611C24.6934 100.611 24.7087 100.611 24.7258 100.611C24.8215 100.611 24.9087 100.602 24.9873 100.585C25.0659 100.564 25.1377 100.534 25.2026 100.493C25.271 100.452 25.3359 100.399 25.3975 100.334C25.459 100.265 25.5188 100.183 25.5769 100.088L25.7615 100.231C25.5974 100.464 25.4282 100.626 25.2539 100.718C25.0796 100.811 24.895 100.857 24.7002 100.857C24.6284 100.857 24.5652 100.85 24.5105 100.836C24.3635 101.082 24.2063 101.292 24.0388 101.467C23.8713 101.638 23.7004 101.778 23.5261 101.887C23.3518 101.997 23.1792 102.075 23.0083 102.123C22.8374 102.174 22.6785 102.2 22.5315 102.2C22.3811 102.2 22.241 102.173 22.1111 102.118C21.9846 102.067 21.8752 101.991 21.783 101.892C21.6907 101.793 21.6189 101.675 21.5676 101.539C21.5164 101.402 21.4907 101.248 21.4907 101.077C21.4907 100.906 21.5181 100.732 21.5728 100.554C21.6274 100.376 21.7009 100.2 21.7932 100.026C21.8889 99.8518 22 99.6843 22.1265 99.5237C22.2529 99.3596 22.3896 99.2075 22.5366 99.0674C22.6836 98.9272 22.8357 98.8008 22.9929 98.688C23.1501 98.5752 23.3074 98.4829 23.4646 98.4111L23.6287 98.6265C23.4475 98.7563 23.2629 98.9204 23.075 99.1187C22.8904 99.3169 22.7212 99.5339 22.5674 99.7698C22.417 100.006 22.2922 100.252 22.1931 100.508C22.0974 100.761 22.0496 101.007 22.0496 101.246C22.0496 101.462 22.0974 101.629 22.1931 101.749C22.2888 101.865 22.4341 101.923 22.6289 101.923C22.7793 101.923 22.928 101.892 23.075 101.831C23.2219 101.769 23.3655 101.686 23.5056 101.58C23.6458 101.474 23.7808 101.349 23.9106 101.205C24.0405 101.058 24.1636 100.903 24.2798 100.739C24.1807 100.681 24.0935 100.604 24.0183 100.508C23.9431 100.409 23.8799 100.298 23.8286 100.175C23.7773 100.048 23.738 99.9133 23.7107 99.7698C23.6868 99.6262 23.6748 99.4792 23.6748 99.3289C23.6748 99.1785 23.6936 99.0366 23.7312 98.9033C23.7688 98.77 23.8201 98.6538 23.885 98.5547C23.9534 98.4521 24.032 98.3718 24.1208 98.3137C24.2097 98.2556 24.3071 98.2266 24.4131 98.2266C24.5088 98.2266 24.5942 98.2522 24.6694 98.3035C24.7446 98.3513 24.8079 98.4197 24.8591 98.5085C24.9104 98.594 24.9497 98.6965 24.9771 98.8162C25.0044 98.9358 25.0181 99.064 25.0181 99.2007C25.0181 99.3032 25.0095 99.416 24.9924 99.5391C24.9753 99.6621 24.9497 99.7869 24.9155 99.9133C24.8848 100.036 24.8455 100.159 24.7976 100.282C24.7532 100.402 24.7002 100.51 24.6387 100.605ZM23.9414 99.3289C23.9414 99.428 23.95 99.5356 23.967 99.6519C23.9841 99.7681 24.0115 99.8809 24.0491 99.9902C24.0867 100.1 24.1345 100.202 24.1926 100.298C24.2507 100.39 24.3225 100.464 24.408 100.518C24.4695 100.399 24.5208 100.277 24.5618 100.154C24.6062 100.028 24.6421 99.9065 24.6694 99.7903C24.7002 99.6741 24.7207 99.5664 24.731 99.4673C24.7446 99.3647 24.7515 99.2759 24.7515 99.2007C24.7515 99.0981 24.7429 99.0042 24.7258 98.9187C24.7087 98.8333 24.6848 98.7598 24.6541 98.6982C24.6267 98.6333 24.5908 98.5837 24.5464 98.5496C24.5054 98.512 24.4592 98.4932 24.408 98.4932C24.3396 98.4932 24.2764 98.5171 24.2183 98.5649C24.1602 98.6094 24.1106 98.6709 24.0696 98.7495C24.0286 98.8247 23.9961 98.9136 23.9722 99.0161C23.9517 99.1152 23.9414 99.2195 23.9414 99.3289ZM27.0073 101.887C27.0278 101.925 27.0586 101.983 27.0996 102.062C27.1406 102.144 27.1714 102.239 27.1919 102.349C27.4038 102.215 27.6106 102.073 27.8123 101.923C28.0173 101.769 28.2156 101.602 28.407 101.421C28.5984 101.236 28.783 101.034 28.9607 100.816C29.1418 100.597 29.3145 100.354 29.4785 100.088L29.6631 100.231C29.4888 100.518 29.3076 100.778 29.1196 101.01C28.9316 101.24 28.7351 101.45 28.53 101.641C28.3284 101.833 28.1165 102.009 27.8943 102.169C27.6755 102.333 27.4465 102.489 27.2073 102.636C27.1936 102.954 27.1235 103.273 26.9971 103.594C26.8706 103.919 26.7083 104.232 26.51 104.533C26.3152 104.833 26.093 105.114 25.8435 105.374C25.5974 105.637 25.3479 105.866 25.095 106.061C24.8386 106.255 24.5908 106.409 24.3516 106.522C24.1089 106.635 23.8953 106.691 23.7107 106.691C23.5774 106.691 23.4663 106.667 23.3774 106.619C23.2852 106.575 23.2117 106.517 23.157 106.445C23.1023 106.373 23.063 106.295 23.0391 106.209C23.0151 106.124 23.0032 106.042 23.0032 105.963C23.0032 105.765 23.0647 105.551 23.1877 105.322C23.3108 105.097 23.4937 104.861 23.7363 104.615C23.9756 104.372 24.2729 104.124 24.6284 103.871C24.9839 103.618 25.3923 103.367 25.8538 103.118C26.0144 103.029 26.1733 102.942 26.3306 102.856C26.4878 102.771 26.645 102.682 26.8022 102.59C26.8022 102.573 26.8022 102.554 26.8022 102.533C26.8057 102.516 26.8074 102.499 26.8074 102.482C26.8074 102.379 26.7988 102.291 26.7817 102.215C26.7681 102.144 26.7476 102.082 26.7202 102.031C26.5322 102.106 26.3733 102.144 26.2434 102.144C26.1169 102.144 26.011 102.113 25.9255 102.051C25.8401 101.993 25.7974 101.913 25.7974 101.81C25.7974 101.701 25.8452 101.617 25.9409 101.559C26.0366 101.498 26.1511 101.467 26.2844 101.467C26.4622 101.467 26.6279 101.525 26.7817 101.641C26.939 101.518 27.0911 101.361 27.238 101.169C27.385 100.975 27.5149 100.766 27.6277 100.544C27.7405 100.318 27.8311 100.089 27.8994 99.8569C27.9678 99.6211 28.002 99.4006 28.002 99.1956C28.002 99.0828 27.9866 98.9871 27.9558 98.9084C27.9285 98.8298 27.8909 98.7666 27.843 98.7188C27.7952 98.6675 27.7405 98.6299 27.679 98.606C27.6174 98.582 27.5525 98.5701 27.4841 98.5701C27.344 98.5701 27.209 98.6042 27.0791 98.6726C26.9526 98.741 26.833 98.8298 26.7202 98.9392C26.6074 99.0452 26.5015 99.1631 26.4023 99.293C26.3066 99.4229 26.2178 99.5493 26.1357 99.6724C26.0571 99.7954 25.9871 99.9082 25.9255 100.011C25.864 100.11 25.8127 100.183 25.7717 100.231L25.582 100.088C25.623 100.033 25.6743 99.9526 25.7358 99.8467C25.8008 99.7373 25.876 99.616 25.9614 99.4827C26.0469 99.3494 26.1426 99.2126 26.2485 99.0725C26.3545 98.9324 26.4707 98.8059 26.5972 98.6931C26.7236 98.5769 26.8604 98.4829 27.0073 98.4111C27.1577 98.3359 27.3167 98.2983 27.4841 98.2983C27.6448 98.2983 27.7883 98.3257 27.9148 98.3804C28.0447 98.4316 28.1541 98.5051 28.2429 98.6008C28.3352 98.6931 28.4053 98.8059 28.4531 98.9392C28.5044 99.0725 28.53 99.2212 28.53 99.3853C28.53 99.6245 28.489 99.8655 28.407 100.108C28.325 100.351 28.2139 100.583 28.0737 100.805C27.937 101.024 27.7764 101.228 27.5918 101.416C27.4072 101.6 27.2124 101.757 27.0073 101.887ZM25.7051 104.687C25.811 104.553 25.917 104.413 26.0229 104.266C26.1289 104.119 26.228 103.969 26.3203 103.815C26.4126 103.665 26.4946 103.512 26.5664 103.359C26.6416 103.208 26.6997 103.061 26.7407 102.918L25.9871 103.343C25.5496 103.586 25.1787 103.813 24.8745 104.025C24.5669 104.24 24.314 104.439 24.1157 104.62C23.9141 104.804 23.7568 104.97 23.644 105.117C23.5312 105.264 23.4475 105.394 23.3928 105.507C23.3347 105.62 23.3005 105.712 23.2903 105.784C23.2766 105.859 23.2698 105.914 23.2698 105.948C23.2698 105.996 23.2749 106.043 23.2852 106.091C23.2954 106.143 23.3159 106.187 23.3467 106.225C23.374 106.262 23.4116 106.293 23.4595 106.317C23.5073 106.341 23.5706 106.353 23.6492 106.353C23.7346 106.353 23.8406 106.329 23.967 106.281C24.0901 106.233 24.2354 106.146 24.4028 106.02C24.5703 105.896 24.7617 105.727 24.9771 105.512C25.1924 105.297 25.4351 105.021 25.7051 104.687ZM26.5715 101.795C26.5237 101.764 26.4724 101.742 26.4177 101.728C26.363 101.711 26.3169 101.703 26.2793 101.703C26.1323 101.703 26.0588 101.735 26.0588 101.8C26.0588 101.865 26.1221 101.897 26.2485 101.897C26.2827 101.897 26.3323 101.891 26.3972 101.877C26.4622 101.86 26.5203 101.833 26.5715 101.795ZM31.7805 97.4524C31.7805 97.5208 31.7634 97.5925 31.7292 97.6677C31.6951 97.7395 31.6506 97.8044 31.5959 97.8625C31.5447 97.9207 31.4866 97.9685 31.4216 98.0061C31.3567 98.0437 31.2917 98.0625 31.2268 98.0625C31.1687 98.0625 31.1243 98.042 31.0935 98.001C31.0627 97.9565 31.0474 97.9036 31.0474 97.842C31.0474 97.7874 31.0576 97.7224 31.0781 97.6472C31.0986 97.572 31.1294 97.502 31.1704 97.437C31.2114 97.3687 31.261 97.3105 31.3191 97.2627C31.3772 97.2148 31.4438 97.1909 31.519 97.1909C31.5908 97.1909 31.6523 97.2183 31.7036 97.2729C31.7549 97.3276 31.7805 97.3875 31.7805 97.4524ZM30.8218 98.5906C30.7773 98.6794 30.7141 98.7974 30.6321 98.9443C30.5535 99.0879 30.468 99.2468 30.3757 99.4211C30.2834 99.592 30.1895 99.7732 30.0938 99.9646C29.998 100.153 29.9109 100.337 29.8323 100.518C29.7571 100.696 29.6956 100.864 29.6477 101.021C29.5999 101.178 29.5759 101.311 29.5759 101.421C29.5759 101.52 29.5964 101.588 29.6375 101.626C29.6785 101.66 29.7366 101.677 29.8118 101.677C29.9519 101.677 30.0886 101.631 30.2219 101.539C30.3552 101.446 30.4868 101.327 30.6167 101.18C30.75 101.029 30.8799 100.858 31.0063 100.667C31.1328 100.476 31.2593 100.282 31.3857 100.088L31.5703 100.231C31.4712 100.409 31.3584 100.599 31.2319 100.8C31.1089 101.002 30.9705 101.19 30.8167 101.364C30.6628 101.535 30.4937 101.677 30.3091 101.79C30.1245 101.903 29.9229 101.959 29.7041 101.959C29.499 101.959 29.3418 101.897 29.2324 101.774C29.123 101.651 29.0684 101.492 29.0684 101.298C29.0684 101.069 29.1213 100.829 29.2273 100.58C29.3333 100.33 29.4648 100.084 29.6221 99.8416C29.7827 99.5955 29.9553 99.3596 30.1399 99.134C30.3279 98.9084 30.5005 98.7034 30.6577 98.5188L30.8218 98.5906ZM35.6667 99.3391C35.6667 99.4861 35.6411 99.6365 35.5898 99.7903C35.5386 99.9407 35.4736 100.093 35.395 100.247C35.3164 100.397 35.2327 100.546 35.1438 100.693C35.0549 100.84 34.9712 100.981 34.8926 101.118C34.814 101.255 34.749 101.386 34.6978 101.513C34.6465 101.636 34.6208 101.749 34.6208 101.851C34.6208 101.93 34.6379 101.983 34.6721 102.01C34.7063 102.038 34.7439 102.051 34.7849 102.051C34.9148 102.051 35.0601 101.988 35.2207 101.862C35.3813 101.732 35.5437 101.569 35.7078 101.375C35.8752 101.18 36.041 100.968 36.2051 100.739C36.3691 100.51 36.5178 100.293 36.6511 100.088L36.8357 100.231C36.8083 100.272 36.7588 100.354 36.687 100.477C36.6152 100.597 36.5264 100.735 36.4204 100.893C36.3145 101.046 36.1948 101.209 36.0615 101.38C35.9316 101.547 35.7915 101.703 35.6411 101.846C35.4907 101.986 35.3352 102.103 35.1746 102.195C35.0173 102.287 34.8584 102.333 34.6978 102.333C34.6055 102.333 34.5217 102.318 34.4465 102.287C34.3713 102.256 34.3064 102.214 34.2517 102.159C34.2004 102.104 34.1594 102.041 34.1287 101.969C34.0979 101.894 34.0825 101.815 34.0825 101.733C34.0825 101.6 34.1116 101.457 34.1697 101.303C34.2312 101.146 34.3064 100.985 34.3953 100.821C34.4841 100.657 34.5815 100.493 34.6875 100.329C34.7935 100.161 34.8909 100.002 34.9797 99.8518C35.0686 99.7014 35.1421 99.563 35.2002 99.4365C35.2617 99.3066 35.2925 99.1956 35.2925 99.1033C35.2925 98.9973 35.2634 98.9084 35.2053 98.8367C35.1506 98.7649 35.072 98.729 34.9695 98.729C34.8601 98.729 34.7336 98.7751 34.5901 98.8674C34.4465 98.9563 34.2859 99.0879 34.1082 99.2622C33.9304 99.4365 33.7356 99.6519 33.5237 99.9082C33.3152 100.161 33.0879 100.45 32.8418 100.775C32.7017 100.963 32.5649 101.144 32.4316 101.318C32.3735 101.393 32.3154 101.47 32.2573 101.549C32.1992 101.627 32.1411 101.706 32.083 101.785C32.0249 101.86 31.9702 101.932 31.9189 102C31.8677 102.072 31.8215 102.133 31.7805 102.185L31.3293 102L31.9292 101.175C32.0146 101.058 32.1018 100.934 32.1907 100.8C32.2795 100.667 32.3667 100.53 32.4521 100.39C32.541 100.247 32.6248 100.103 32.7034 99.9595C32.782 99.8159 32.8555 99.6758 32.9238 99.5391C33.0229 99.334 33.0913 99.1648 33.1289 99.0315C33.1665 98.8948 33.1853 98.7854 33.1853 98.7034C33.1853 98.6111 33.1682 98.5513 33.134 98.5239C33.0999 98.4932 33.052 98.4778 32.9905 98.4778C32.9255 98.4778 32.8503 98.512 32.7649 98.5803C32.6829 98.6453 32.5974 98.7307 32.5085 98.8367C32.4197 98.9392 32.3291 99.0571 32.2368 99.1904C32.1479 99.3203 32.0625 99.4502 31.9805 99.5801C31.8984 99.71 31.8215 99.833 31.7498 99.9492C31.678 100.065 31.6182 100.159 31.5703 100.231L31.3857 100.088C31.5601 99.8142 31.7173 99.5647 31.8574 99.3391C32.001 99.1101 32.1377 98.9136 32.2676 98.7495C32.4009 98.5854 32.5291 98.459 32.6521 98.3701C32.7786 98.2778 32.9119 98.2317 33.052 98.2317C33.1272 98.2317 33.199 98.2471 33.2673 98.2778C33.3391 98.3086 33.4006 98.3547 33.4519 98.4163C33.5066 98.4744 33.5493 98.5461 33.5801 98.6316C33.6108 98.717 33.6262 98.8162 33.6262 98.929C33.6262 99.0178 33.616 99.1101 33.5955 99.2058C33.7458 99.0588 33.886 98.9375 34.0159 98.8418C34.1458 98.7461 34.2654 98.6709 34.3748 98.6162C34.4841 98.5581 34.585 98.5171 34.6772 98.4932C34.7695 98.4692 34.8533 98.4573 34.9285 98.4573C34.9934 98.4573 35.0686 98.4692 35.1541 98.4932C35.2395 98.5171 35.3198 98.5615 35.395 98.6265C35.4702 98.6914 35.5334 98.782 35.5847 98.8982C35.6394 99.011 35.6667 99.158 35.6667 99.3391ZM37.3535 99.9954C37.5347 99.7493 37.7227 99.5237 37.9175 99.3186C38.1123 99.1101 38.3088 98.9307 38.5071 98.7803C38.7053 98.6299 38.9001 98.5137 39.0916 98.4316C39.2864 98.3462 39.4744 98.3035 39.6555 98.3035C39.7786 98.3035 39.8794 98.3223 39.958 98.3599C40.04 98.3975 40.1033 98.447 40.1477 98.5085C40.1956 98.5667 40.228 98.6316 40.2451 98.7034C40.2656 98.7751 40.2759 98.8469 40.2759 98.9187C40.2759 99.0417 40.2502 99.175 40.199 99.3186C40.1477 99.4587 40.0828 99.6057 40.0042 99.7595C39.929 99.9133 39.8469 100.071 39.7581 100.231C39.6692 100.392 39.5854 100.549 39.5068 100.703C39.4316 100.857 39.3684 101.007 39.3171 101.154C39.2659 101.298 39.2402 101.433 39.2402 101.559C39.2402 101.638 39.2573 101.711 39.2915 101.78C39.3291 101.844 39.394 101.877 39.4863 101.877C39.5957 101.877 39.717 101.822 39.8503 101.713C39.9836 101.6 40.1187 101.458 40.2554 101.287C40.3955 101.113 40.5339 100.92 40.6707 100.708C40.8108 100.496 40.9407 100.289 41.0603 100.088L41.2449 100.231C41.2073 100.282 41.156 100.366 41.0911 100.482C41.0261 100.595 40.9492 100.723 40.8604 100.867C40.7749 101.007 40.6775 101.152 40.5681 101.303C40.4622 101.453 40.3477 101.592 40.2246 101.718C40.105 101.841 39.9785 101.942 39.8452 102.021C39.7119 102.103 39.5769 102.144 39.4402 102.144C39.3513 102.144 39.2625 102.133 39.1736 102.113C39.0847 102.092 39.0044 102.055 38.9326 102C38.8608 101.945 38.8027 101.872 38.7583 101.78C38.7139 101.684 38.6917 101.564 38.6917 101.421C38.6917 101.253 38.719 101.084 38.7737 100.913C38.8318 100.739 38.9019 100.568 38.9839 100.4C39.0693 100.229 39.1616 100.065 39.2607 99.9082C39.3599 99.7476 39.4504 99.5972 39.5325 99.457C39.6179 99.3169 39.688 99.1904 39.7427 99.0776C39.8008 98.9614 39.8298 98.864 39.8298 98.7854C39.8298 98.6453 39.7615 98.5752 39.6248 98.5752C39.4299 98.5752 39.2231 98.6401 39.0044 98.77C38.7891 98.8965 38.572 99.0623 38.3533 99.2673C38.1345 99.4724 37.9192 99.7031 37.7073 99.9595C37.4954 100.212 37.2971 100.465 37.1125 100.718L36.3333 102.185L35.8667 102C36.3008 101.053 36.7178 100.118 37.1177 99.1956C37.521 98.2693 37.9346 97.355 38.3584 96.4526C38.4233 96.3125 38.4985 96.1604 38.584 95.9963C38.6729 95.8323 38.7668 95.6682 38.866 95.5042C38.9685 95.3401 39.0779 95.1829 39.1941 95.0325C39.3103 94.8821 39.4299 94.7488 39.553 94.6326C39.676 94.5164 39.8025 94.4241 39.9324 94.3557C40.0657 94.2839 40.199 94.248 40.3323 94.248C40.4827 94.248 40.5989 94.2908 40.6809 94.3762C40.7664 94.4583 40.8091 94.5762 40.8091 94.73C40.8091 94.8906 40.7664 95.0735 40.6809 95.2786C40.5955 95.4802 40.481 95.6938 40.3374 95.9194C40.1938 96.145 40.0264 96.3774 39.835 96.6167C39.647 96.856 39.447 97.0935 39.2351 97.3293C39.0266 97.5652 38.8147 97.7942 38.5994 98.0164C38.384 98.2351 38.1772 98.4385 37.979 98.6265L37.3535 99.9954ZM40.3579 94.5198C40.2041 94.5198 40.0623 94.5796 39.9324 94.6992C39.8059 94.8154 39.6675 95.0085 39.5171 95.2786C39.3667 95.5486 39.1941 95.9006 38.9993 96.3347C38.8044 96.7688 38.5669 97.302 38.2866 97.9343C38.6626 97.5686 38.9907 97.2148 39.271 96.873C39.5547 96.5278 39.7905 96.2134 39.9785 95.9297C40.1665 95.646 40.3066 95.3999 40.3989 95.1914C40.4946 94.9795 40.5425 94.8223 40.5425 94.7197C40.5425 94.6582 40.5254 94.6104 40.4912 94.5762C40.457 94.5386 40.4126 94.5198 40.3579 94.5198ZM45.1414 98.5906C45.0969 98.6794 45.0337 98.7957 44.9517 98.9392C44.873 99.0828 44.7876 99.2417 44.6953 99.416C44.603 99.5869 44.509 99.7664 44.4133 99.9543C44.321 100.142 44.2356 100.327 44.157 100.508C44.0818 100.686 44.0186 100.855 43.9673 101.016C43.9194 101.173 43.8955 101.306 43.8955 101.416C43.8955 101.525 43.916 101.597 43.957 101.631C44.0015 101.662 44.0579 101.677 44.1262 101.677C44.2253 101.677 44.3262 101.648 44.4287 101.59C44.5347 101.532 44.6372 101.457 44.7363 101.364C44.8389 101.272 44.938 101.168 45.0337 101.052C45.1294 100.935 45.2183 100.819 45.3003 100.703C45.3857 100.583 45.4626 100.47 45.531 100.365C45.5994 100.255 45.6575 100.163 45.7053 100.088L45.8899 100.231C45.8318 100.341 45.7634 100.458 45.6848 100.585C45.6062 100.711 45.519 100.84 45.4233 100.969C45.3311 101.096 45.2302 101.219 45.1208 101.339C45.0115 101.458 44.8953 101.564 44.7722 101.656C44.6526 101.749 44.5261 101.822 44.3928 101.877C44.2595 101.932 44.1228 101.959 43.9827 101.959C43.7776 101.959 43.6272 101.897 43.5315 101.774C43.4358 101.651 43.3879 101.492 43.3879 101.298C43.3879 101.284 43.3879 101.255 43.3879 101.21C43.3914 101.163 43.3965 101.125 43.4033 101.098C43.2324 101.313 43.0684 101.491 42.9111 101.631C42.7573 101.771 42.6069 101.882 42.46 101.964C42.3164 102.046 42.1763 102.103 42.0396 102.133C41.9062 102.167 41.7781 102.185 41.655 102.185C41.5251 102.185 41.4021 102.162 41.2859 102.118C41.1731 102.077 41.074 102.015 40.9885 101.933C40.8997 101.851 40.8313 101.75 40.7834 101.631C40.7322 101.511 40.7065 101.373 40.7065 101.216C40.7065 101.021 40.751 100.799 40.8398 100.549C40.9253 100.296 41.0791 100.024 41.3013 99.7339C41.4893 99.4844 41.6841 99.2742 41.8857 99.1033C42.0908 98.9324 42.2908 98.7957 42.4856 98.6931C42.6838 98.5872 42.8718 98.512 43.0496 98.4675C43.2273 98.4231 43.3862 98.4009 43.5264 98.4009C43.8408 98.4009 44.0784 98.4539 44.239 98.5598C44.3997 98.6624 44.4971 98.8213 44.5312 99.0366C44.5996 98.9512 44.6714 98.8657 44.7466 98.7803C44.8218 98.6948 44.8987 98.6077 44.9773 98.5188L45.1414 98.5906ZM43.5674 100.539C43.6118 100.467 43.6665 100.376 43.7314 100.267C43.7964 100.154 43.8647 100.04 43.9365 99.9236C44.0083 99.804 44.0784 99.6895 44.1467 99.5801C44.2151 99.4707 44.2749 99.3784 44.3262 99.3032C44.3262 99.2725 44.321 99.2229 44.3108 99.1545C44.304 99.0862 44.2817 99.0178 44.2441 98.9495C44.2065 98.8777 44.1467 98.8162 44.0647 98.7649C43.9827 98.7136 43.8682 98.688 43.7212 98.688C43.6152 98.688 43.4956 98.7051 43.3623 98.7393C43.2324 98.77 43.0923 98.8247 42.9419 98.9033C42.7949 98.9785 42.6428 99.0793 42.4856 99.2058C42.3284 99.3323 42.1711 99.4895 42.0139 99.6775C41.7781 99.9612 41.5952 100.247 41.4653 100.534C41.3389 100.817 41.2756 101.074 41.2756 101.303C41.2756 101.498 41.3201 101.648 41.4089 101.754C41.4978 101.86 41.6243 101.913 41.7883 101.913C41.9763 101.913 42.1523 101.872 42.3164 101.79C42.4805 101.704 42.6343 101.595 42.7778 101.462C42.9214 101.328 43.0581 101.181 43.188 101.021C43.3179 100.857 43.4443 100.696 43.5674 100.539ZM48.9456 100.231C48.8943 100.306 48.8328 100.409 48.761 100.539C48.6926 100.665 48.6123 100.804 48.52 100.954C48.4277 101.101 48.3252 101.251 48.2124 101.405C48.103 101.559 47.9817 101.698 47.8484 101.821C47.7185 101.944 47.5767 102.044 47.4229 102.123C47.269 102.202 47.105 102.241 46.9307 102.241C46.835 102.241 46.7444 102.226 46.6589 102.195C46.5735 102.167 46.4983 102.123 46.4333 102.062C46.3684 102 46.3171 101.925 46.2795 101.836C46.2419 101.744 46.2231 101.636 46.2231 101.513C46.2231 101.345 46.2556 101.171 46.3206 100.99C46.3889 100.805 46.4675 100.628 46.5564 100.457C46.6453 100.286 46.7341 100.13 46.823 99.9902C46.9119 99.8467 46.9768 99.7322 47.0178 99.6467C47.0588 99.5613 47.0793 99.4878 47.0793 99.4263C47.0793 99.3818 47.064 99.3425 47.0332 99.3083C47.0059 99.2742 46.97 99.2417 46.9255 99.2109C46.8845 99.1768 46.8401 99.1426 46.7922 99.1084C46.7478 99.0708 46.7102 99.0264 46.6794 98.9751C46.594 99.1118 46.5068 99.2502 46.418 99.3904C46.3394 99.51 46.2539 99.645 46.1616 99.7954C46.0693 99.9424 45.9805 100.088 45.895 100.231L45.7104 100.088L46.8076 98.3701L46.9563 98.447C46.9495 98.4675 46.9375 98.5 46.9204 98.5444C46.9067 98.5889 46.8999 98.6367 46.8999 98.688C46.8999 98.7256 46.905 98.7632 46.9153 98.8008C46.929 98.835 46.9546 98.8674 46.9922 98.8982C47.1289 99.0212 47.2366 99.1169 47.3152 99.1853C47.3938 99.2502 47.4502 99.3032 47.4844 99.3442C47.522 99.3818 47.5442 99.4143 47.551 99.4417C47.5613 99.4656 47.5664 99.498 47.5664 99.5391C47.5664 99.5801 47.5596 99.6296 47.5459 99.6877C47.5322 99.7458 47.5083 99.8159 47.4741 99.8979C47.4434 99.98 47.3989 100.077 47.3408 100.19C47.2861 100.3 47.2161 100.428 47.1306 100.575C47.0793 100.664 47.0281 100.754 46.9768 100.846C46.929 100.935 46.8845 101.026 46.8435 101.118C46.8059 101.21 46.7751 101.303 46.7512 101.395C46.7273 101.487 46.7153 101.576 46.7153 101.662C46.7153 101.727 46.7239 101.78 46.741 101.821C46.7615 101.858 46.7871 101.887 46.8179 101.908C46.8486 101.928 46.8811 101.942 46.9153 101.949C46.9529 101.956 46.9888 101.959 47.0229 101.959C47.1357 101.959 47.2468 101.927 47.3562 101.862C47.469 101.793 47.5784 101.706 47.6843 101.6C47.7937 101.494 47.8979 101.375 47.9971 101.241C48.0996 101.104 48.197 100.966 48.2893 100.826C48.3816 100.686 48.467 100.552 48.5457 100.426C48.6243 100.296 48.6943 100.183 48.7559 100.088L48.9456 100.231ZM56.113 99.3391C56.113 99.4861 56.0874 99.6365 56.0361 99.7903C55.9849 99.9407 55.9199 100.093 55.8413 100.247C55.7627 100.397 55.679 100.546 55.5901 100.693C55.5012 100.84 55.4175 100.981 55.3389 101.118C55.2603 101.255 55.1953 101.386 55.144 101.513C55.0928 101.636 55.0671 101.749 55.0671 101.851C55.0671 101.93 55.0842 101.983 55.1184 102.01C55.1526 102.038 55.1902 102.051 55.2312 102.051C55.3611 102.051 55.5063 101.988 55.667 101.862C55.8276 101.732 55.99 101.569 56.1541 101.375C56.3215 101.18 56.4873 100.968 56.6514 100.739C56.8154 100.51 56.9641 100.293 57.0974 100.088L57.282 100.231C57.2546 100.272 57.2051 100.354 57.1333 100.477C57.0615 100.597 56.9727 100.735 56.8667 100.893C56.7607 101.046 56.6411 101.209 56.5078 101.38C56.3779 101.547 56.2378 101.703 56.0874 101.846C55.937 101.986 55.7815 102.103 55.6208 102.195C55.4636 102.287 55.3047 102.333 55.144 102.333C55.0518 102.333 54.968 102.318 54.8928 102.287C54.8176 102.256 54.7527 102.214 54.698 102.159C54.6467 102.104 54.6057 102.041 54.575 101.969C54.5442 101.894 54.5288 101.815 54.5288 101.733C54.5288 101.6 54.5579 101.457 54.616 101.303C54.6775 101.146 54.7527 100.985 54.8416 100.821C54.9304 100.657 55.0278 100.493 55.1338 100.329C55.2397 100.161 55.3372 100.002 55.426 99.8518C55.5149 99.7014 55.5884 99.563 55.6465 99.4365C55.708 99.3066 55.7388 99.1956 55.7388 99.1033C55.7388 98.9973 55.7097 98.9084 55.6516 98.8367C55.5969 98.7649 55.5183 98.729 55.4158 98.729C55.3064 98.729 55.1799 98.7751 55.0364 98.8674C54.8928 98.9563 54.7322 99.0879 54.5544 99.2622C54.3767 99.4365 54.1819 99.6519 53.97 99.9082C53.7615 100.161 53.5342 100.45 53.2881 100.775C53.1479 100.963 53.0112 101.144 52.8779 101.318C52.8198 101.393 52.7617 101.47 52.7036 101.549C52.6455 101.627 52.5874 101.706 52.5293 101.785C52.4712 101.86 52.4165 101.932 52.3652 102C52.314 102.072 52.2678 102.133 52.2268 102.185L51.7756 102L52.3755 101.175C52.4609 101.058 52.5481 100.934 52.637 100.8C52.7258 100.667 52.813 100.53 52.8984 100.39C52.9873 100.247 53.071 100.103 53.1497 99.9595C53.2283 99.8159 53.3018 99.6758 53.3701 99.5391C53.4692 99.334 53.5376 99.1648 53.5752 99.0315C53.6128 98.8948 53.6316 98.7854 53.6316 98.7034C53.6316 98.6111 53.6145 98.5513 53.5803 98.5239C53.5461 98.4932 53.4983 98.4778 53.4368 98.4778C53.3718 98.4778 53.2966 98.512 53.2112 98.5803C53.1292 98.6453 53.0437 98.7307 52.9548 98.8367C52.866 98.9392 52.7754 99.0571 52.6831 99.1904C52.5942 99.3203 52.5088 99.4502 52.4268 99.5801C52.3447 99.71 52.2678 99.833 52.196 99.9492C52.1243 100.065 52.0645 100.159 52.0166 100.231L51.832 100.088C52.0063 99.8142 52.1636 99.5647 52.3037 99.3391C52.4473 99.1101 52.584 98.9136 52.7139 98.7495C52.8472 98.5854 52.9753 98.459 53.0984 98.3701C53.2249 98.2778 53.3582 98.2317 53.4983 98.2317C53.5735 98.2317 53.6453 98.2471 53.7136 98.2778C53.7854 98.3086 53.8469 98.3547 53.8982 98.4163C53.9529 98.4744 53.9956 98.5461 54.0264 98.6316C54.0571 98.717 54.0725 98.8162 54.0725 98.929C54.0725 99.0178 54.0623 99.1101 54.0417 99.2058C54.1921 99.0588 54.3323 98.9375 54.4622 98.8418C54.592 98.7461 54.7117 98.6709 54.821 98.6162C54.9304 98.5581 55.0312 98.5171 55.1235 98.4932C55.2158 98.4692 55.2996 98.4573 55.3748 98.4573C55.4397 98.4573 55.5149 98.4692 55.6003 98.4932C55.6858 98.5171 55.7661 98.5615 55.8413 98.6265C55.9165 98.6914 55.9797 98.782 56.031 98.8982C56.0857 99.011 56.113 99.158 56.113 99.3391ZM59.4917 100.882C59.3345 101.067 59.179 101.238 59.0251 101.395C58.8713 101.549 58.7175 101.682 58.5637 101.795C58.4133 101.904 58.2629 101.99 58.1125 102.051C57.9622 102.116 57.8101 102.149 57.6562 102.149C57.5264 102.149 57.4084 102.125 57.3025 102.077C57.2 102.032 57.1111 101.969 57.0359 101.887C56.9573 101.802 56.8975 101.699 56.8564 101.58C56.8154 101.457 56.7949 101.32 56.7949 101.169C56.7949 100.934 56.8479 100.691 56.9539 100.441C57.0564 100.192 57.1863 99.9492 57.3435 99.7134C57.5042 99.4775 57.6802 99.2537 57.8716 99.0417C58.0664 98.8298 58.251 98.6418 58.4253 98.4778L58.6458 98.6316C58.5227 98.8127 58.3843 99.0178 58.2305 99.2468C58.0801 99.4758 57.9365 99.7134 57.7998 99.9595C57.6665 100.202 57.5537 100.447 57.4614 100.693C57.3691 100.935 57.323 101.161 57.323 101.369C57.323 101.51 57.3486 101.629 57.3999 101.728C57.4546 101.827 57.5571 101.877 57.7075 101.877C57.8716 101.877 58.051 101.812 58.2458 101.682C58.4441 101.552 58.6458 101.383 58.8508 101.175C59.0593 100.966 59.2661 100.732 59.4712 100.472C59.6797 100.209 59.8762 99.9441 60.0608 99.6775C60.2454 99.4109 60.4128 99.1562 60.5632 98.9136C60.717 98.6709 60.8418 98.4641 60.9375 98.2932L61.3118 98.4778C61.1135 98.8674 60.9221 99.2314 60.7375 99.5698C60.5564 99.9048 60.394 100.207 60.2505 100.477C60.1104 100.744 59.9976 100.976 59.9121 101.175C59.8301 101.373 59.7891 101.53 59.7891 101.646C59.7891 101.694 59.7993 101.733 59.8198 101.764C59.8403 101.795 59.8728 101.81 59.9172 101.81C60.0437 101.814 60.1821 101.759 60.3325 101.646C60.4863 101.533 60.6401 101.392 60.7939 101.221C60.9512 101.05 61.1033 100.864 61.2502 100.662C61.4006 100.457 61.5356 100.265 61.6553 100.088L61.8398 100.231C61.8193 100.265 61.7766 100.335 61.7117 100.441C61.6467 100.547 61.5664 100.669 61.4707 100.805C61.375 100.942 61.2656 101.086 61.1426 101.236C61.0195 101.386 60.8896 101.525 60.7529 101.651C60.6162 101.774 60.4744 101.877 60.3274 101.959C60.1804 102.038 60.0352 102.077 59.8916 102.077C59.8027 102.077 59.7224 102.062 59.6506 102.031C59.5823 102 59.5242 101.959 59.4763 101.908C59.4285 101.856 59.3909 101.797 59.3635 101.728C59.3362 101.66 59.3225 101.588 59.3225 101.513C59.3225 101.424 59.3362 101.327 59.3635 101.221C59.3943 101.115 59.437 101.002 59.4917 100.882ZM65.9363 99.3391C65.9363 99.4861 65.9106 99.6365 65.8594 99.7903C65.8081 99.9407 65.7432 100.093 65.6646 100.247C65.5859 100.397 65.5022 100.546 65.4133 100.693C65.3245 100.84 65.2407 100.981 65.1621 101.118C65.0835 101.255 65.0186 101.386 64.9673 101.513C64.916 101.636 64.8904 101.749 64.8904 101.851C64.8904 101.93 64.9075 101.983 64.9417 102.01C64.9758 102.038 65.0134 102.051 65.0544 102.051C65.1843 102.051 65.3296 101.988 65.4902 101.862C65.6509 101.732 65.8132 101.569 65.9773 101.375C66.1448 101.18 66.3105 100.968 66.4746 100.739C66.6387 100.51 66.7874 100.293 66.9207 100.088L67.1052 100.231C67.0779 100.272 67.0283 100.354 66.9565 100.477C66.8848 100.597 66.7959 100.735 66.6899 100.893C66.584 101.046 66.4644 101.209 66.3311 101.38C66.2012 101.547 66.061 101.703 65.9106 101.846C65.7603 101.986 65.6047 102.103 65.4441 102.195C65.2869 102.287 65.1279 102.333 64.9673 102.333C64.875 102.333 64.7913 102.318 64.7161 102.287C64.6409 102.256 64.5759 102.214 64.5212 102.159C64.47 102.104 64.429 102.041 64.3982 101.969C64.3674 101.894 64.3521 101.815 64.3521 101.733C64.3521 101.6 64.3811 101.457 64.4392 101.303C64.5007 101.146 64.5759 100.985 64.6648 100.821C64.7537 100.657 64.8511 100.493 64.957 100.329C65.063 100.161 65.1604 100.002 65.2493 99.8518C65.3381 99.7014 65.4116 99.563 65.4697 99.4365C65.5312 99.3066 65.562 99.1956 65.562 99.1033C65.562 98.9973 65.533 98.9084 65.4749 98.8367C65.4202 98.7649 65.3416 98.729 65.239 98.729C65.1296 98.729 65.0032 98.7751 64.8596 98.8674C64.7161 98.9563 64.5554 99.0879 64.3777 99.2622C64.2 99.4365 64.0051 99.6519 63.7932 99.9082C63.5847 100.161 63.3574 100.45 63.1113 100.775C62.9712 100.963 62.8345 101.144 62.7012 101.318C62.6431 101.393 62.585 101.47 62.5269 101.549C62.4688 101.627 62.4106 101.706 62.3525 101.785C62.2944 101.86 62.2397 101.932 62.1885 102C62.1372 102.072 62.0911 102.133 62.05 102.185L61.5989 102L62.1987 101.175C62.2842 101.058 62.3713 100.934 62.4602 100.8C62.5491 100.667 62.6362 100.53 62.7217 100.39C62.8105 100.247 62.8943 100.103 62.9729 99.9595C63.0515 99.8159 63.125 99.6758 63.1934 99.5391C63.2925 99.334 63.3608 99.1648 63.3984 99.0315C63.436 98.8948 63.4548 98.7854 63.4548 98.7034C63.4548 98.6111 63.4377 98.5513 63.4036 98.5239C63.3694 98.4932 63.3215 98.4778 63.26 98.4778C63.1951 98.4778 63.1199 98.512 63.0344 98.5803C62.9524 98.6453 62.8669 98.7307 62.7781 98.8367C62.6892 98.9392 62.5986 99.0571 62.5063 99.1904C62.4175 99.3203 62.332 99.4502 62.25 99.5801C62.168 99.71 62.0911 99.833 62.0193 99.9492C61.9475 100.065 61.8877 100.159 61.8398 100.231L61.6553 100.088C61.8296 99.8142 61.9868 99.5647 62.127 99.3391C62.2705 99.1101 62.4072 98.9136 62.5371 98.7495C62.6704 98.5854 62.7986 98.459 62.9216 98.3701C63.0481 98.2778 63.1814 98.2317 63.3215 98.2317C63.3967 98.2317 63.4685 98.2471 63.5369 98.2778C63.6086 98.3086 63.6702 98.3547 63.7214 98.4163C63.7761 98.4744 63.8188 98.5461 63.8496 98.6316C63.8804 98.717 63.8958 98.8162 63.8958 98.929C63.8958 99.0178 63.8855 99.1101 63.865 99.2058C64.0154 99.0588 64.1555 98.9375 64.2854 98.8418C64.4153 98.7461 64.5349 98.6709 64.6443 98.6162C64.7537 98.5581 64.8545 98.5171 64.9468 98.4932C65.0391 98.4692 65.1228 98.4573 65.198 98.4573C65.2629 98.4573 65.3381 98.4692 65.4236 98.4932C65.509 98.5171 65.5894 98.5615 65.6646 98.6265C65.7397 98.6914 65.803 98.782 65.8542 98.8982C65.9089 99.011 65.9363 99.158 65.9363 99.3391ZM69.8174 98.8879C69.8379 98.8333 69.8481 98.7751 69.8481 98.7136C69.8481 98.6042 69.8037 98.5188 69.7148 98.4573C69.6294 98.3923 69.4927 98.3599 69.3047 98.3599C69.1509 98.3599 68.9954 98.394 68.8381 98.4624C68.6843 98.5273 68.5356 98.6179 68.3921 98.7341C68.2485 98.8503 68.1135 98.9888 67.9871 99.1494C67.864 99.3101 67.7563 99.4844 67.6641 99.6724C67.5752 99.8604 67.5034 100.06 67.4487 100.272C67.3975 100.481 67.3718 100.691 67.3718 100.903C67.3718 101.074 67.3906 101.219 67.4282 101.339C67.4658 101.458 67.5188 101.556 67.5872 101.631C67.6555 101.706 67.7375 101.761 67.8333 101.795C67.929 101.826 68.0366 101.841 68.1562 101.841C68.3921 101.841 68.6211 101.788 68.8433 101.682C69.0654 101.576 69.2756 101.439 69.4739 101.272C69.6755 101.101 69.8601 100.911 70.0276 100.703C70.1985 100.494 70.3489 100.289 70.4788 100.088L70.6685 100.231C70.4839 100.542 70.2874 100.816 70.0789 101.052C69.8704 101.284 69.6567 101.479 69.438 101.636C69.2192 101.793 68.9971 101.911 68.7715 101.99C68.5459 102.068 68.3254 102.108 68.1101 102.108C67.9392 102.108 67.7751 102.082 67.6179 102.031C67.4641 101.979 67.3274 101.903 67.2078 101.8C67.0916 101.694 66.9976 101.559 66.9258 101.395C66.8574 101.231 66.8232 101.036 66.8232 100.811C66.8232 100.544 66.8608 100.293 66.936 100.057C67.0146 99.8176 67.1172 99.5972 67.2437 99.3955C67.3735 99.1938 67.5222 99.0127 67.6897 98.8521C67.8572 98.688 68.0315 98.5496 68.2126 98.4368C68.3972 98.324 68.5818 98.2385 68.7664 98.1804C68.9543 98.1189 69.1304 98.0881 69.2944 98.0881C69.4619 98.0881 69.5986 98.1121 69.7046 98.1599C69.8105 98.2043 69.8943 98.259 69.9558 98.324C70.0173 98.3889 70.0583 98.4573 70.0789 98.5291C70.1028 98.6008 70.1147 98.6624 70.1147 98.7136C70.1147 98.7957 70.1028 98.8828 70.0789 98.9751C70.0549 99.0674 70.0208 99.1528 69.9763 99.2314C69.9353 99.3066 69.8823 99.3699 69.8174 99.4211C69.7559 99.4724 69.6875 99.498 69.6123 99.498C69.5371 99.498 69.4722 99.4741 69.4175 99.4263C69.3628 99.375 69.3354 99.3118 69.3354 99.2366C69.3354 99.2332 69.3372 99.2126 69.3406 99.175C69.3474 99.1375 69.3645 99.0981 69.3918 99.0571C69.4192 99.0127 69.4602 98.9734 69.5149 98.9392C69.573 98.905 69.6533 98.8879 69.7559 98.8879H69.8174ZM74.5598 98.5906C74.5154 98.6794 74.4521 98.7957 74.3701 98.9392C74.2915 99.0828 74.2061 99.2417 74.1138 99.416C74.0215 99.5869 73.9275 99.7664 73.8318 99.9543C73.7395 100.142 73.6541 100.327 73.5754 100.508C73.5002 100.686 73.437 100.855 73.3857 101.016C73.3379 101.173 73.314 101.306 73.314 101.416C73.314 101.525 73.3345 101.597 73.3755 101.631C73.4199 101.662 73.4763 101.677 73.5447 101.677C73.6438 101.677 73.7446 101.648 73.8472 101.59C73.9531 101.532 74.0557 101.457 74.1548 101.364C74.2573 101.272 74.3564 101.168 74.4521 101.052C74.5479 100.935 74.6367 100.819 74.7188 100.703C74.8042 100.583 74.8811 100.47 74.9495 100.365C75.0178 100.255 75.0759 100.163 75.1238 100.088L75.3083 100.231C75.2502 100.341 75.1819 100.458 75.1033 100.585C75.0247 100.711 74.9375 100.84 74.8418 100.969C74.7495 101.096 74.6487 101.219 74.5393 101.339C74.4299 101.458 74.3137 101.564 74.1907 101.656C74.071 101.749 73.9446 101.822 73.8113 101.877C73.678 101.932 73.5413 101.959 73.4011 101.959C73.196 101.959 73.0457 101.897 72.95 101.774C72.8542 101.651 72.8064 101.492 72.8064 101.298C72.8064 101.284 72.8064 101.255 72.8064 101.21C72.8098 101.163 72.8149 101.125 72.8218 101.098C72.6509 101.313 72.4868 101.491 72.3296 101.631C72.1758 101.771 72.0254 101.882 71.8784 101.964C71.7349 102.046 71.5947 102.103 71.458 102.133C71.3247 102.167 71.1965 102.185 71.0735 102.185C70.9436 102.185 70.8206 102.162 70.7043 102.118C70.5916 102.077 70.4924 102.015 70.407 101.933C70.3181 101.851 70.2498 101.75 70.2019 101.631C70.1506 101.511 70.125 101.373 70.125 101.216C70.125 101.021 70.1694 100.799 70.2583 100.549C70.3438 100.296 70.4976 100.024 70.7197 99.7339C70.9077 99.4844 71.1025 99.2742 71.3042 99.1033C71.5093 98.9324 71.7092 98.7957 71.9041 98.6931C72.1023 98.5872 72.2903 98.512 72.468 98.4675C72.6458 98.4231 72.8047 98.4009 72.9448 98.4009C73.2593 98.4009 73.4968 98.4539 73.6575 98.5598C73.8181 98.6624 73.9155 98.8213 73.9497 99.0366C74.0181 98.9512 74.0898 98.8657 74.165 98.7803C74.2402 98.6948 74.3171 98.6077 74.3958 98.5188L74.5598 98.5906ZM72.9858 100.539C73.0303 100.467 73.085 100.376 73.1499 100.267C73.2148 100.154 73.2832 100.04 73.355 99.9236C73.4268 99.804 73.4968 99.6895 73.5652 99.5801C73.6335 99.4707 73.6934 99.3784 73.7446 99.3032C73.7446 99.2725 73.7395 99.2229 73.7292 99.1545C73.7224 99.0862 73.7002 99.0178 73.6626 98.9495C73.625 98.8777 73.5652 98.8162 73.4832 98.7649C73.4011 98.7136 73.2866 98.688 73.1396 98.688C73.0337 98.688 72.9141 98.7051 72.7808 98.7393C72.6509 98.77 72.5107 98.8247 72.3604 98.9033C72.2134 98.9785 72.0613 99.0793 71.9041 99.2058C71.7468 99.3323 71.5896 99.4895 71.4324 99.6775C71.1965 99.9612 71.0137 100.247 70.8838 100.534C70.7573 100.817 70.6941 101.074 70.6941 101.303C70.6941 101.498 70.7385 101.648 70.8274 101.754C70.9163 101.86 71.0427 101.913 71.2068 101.913C71.3948 101.913 71.5708 101.872 71.7349 101.79C71.8989 101.704 72.0527 101.595 72.1963 101.462C72.3398 101.328 72.4766 101.181 72.6064 101.021C72.7363 100.857 72.8628 100.696 72.9858 100.539ZM78.2615 101.636C78.3708 101.721 78.5161 101.764 78.6973 101.764C78.8921 101.764 79.075 101.733 79.2458 101.672C79.4202 101.61 79.5825 101.53 79.7329 101.431C79.8833 101.328 80.0217 101.216 80.1482 101.093C80.2747 100.969 80.3875 100.846 80.4866 100.723C80.5891 100.597 80.678 100.479 80.7532 100.37C80.8318 100.257 80.895 100.163 80.9429 100.088H81.23C81.1821 100.17 81.1155 100.276 81.03 100.406C80.948 100.532 80.8489 100.667 80.7327 100.811C80.6199 100.954 80.4917 101.099 80.3481 101.246C80.2046 101.39 80.0457 101.52 79.8713 101.636C79.7004 101.752 79.5176 101.848 79.3228 101.923C79.1279 101.995 78.9211 102.031 78.7024 102.031C78.6067 102.031 78.5127 102.021 78.4204 102C78.3315 101.976 78.2444 101.94 78.1589 101.892C78.0461 102.169 77.9368 102.441 77.8308 102.708C77.7214 102.974 77.6189 103.227 77.5232 103.466C77.4241 103.706 77.3335 103.926 77.2515 104.128C77.1694 104.329 77.0977 104.504 77.0361 104.651C76.9746 104.801 76.9268 104.919 76.8926 105.004C76.8584 105.093 76.8396 105.139 76.8362 105.143L76.2979 104.876C76.4722 104.466 76.6294 104.09 76.7695 103.748C76.9062 103.406 77.0344 103.087 77.1541 102.79C77.2703 102.492 77.3813 102.214 77.4873 101.954C77.5898 101.691 77.6941 101.436 77.8 101.19C77.7454 101.111 77.7061 101.034 77.6821 100.959C77.6548 100.884 77.6377 100.823 77.6309 100.775C77.624 100.696 77.6462 100.631 77.6975 100.58C77.7454 100.525 77.8086 100.498 77.8872 100.498C77.9521 100.498 78.012 100.52 78.0667 100.564C78.1692 100.318 78.2598 100.103 78.3384 99.9185C78.4204 99.7305 78.4888 99.5732 78.5435 99.4468C78.605 99.2998 78.6597 99.1716 78.7075 99.0623C79.0049 98.3616 79.28 97.7566 79.533 97.2473C79.7893 96.7346 80.0251 96.3005 80.2405 95.9451C80.4558 95.5862 80.6523 95.2974 80.8301 95.0786C81.0078 94.8564 81.1685 94.6838 81.312 94.5608C81.459 94.4377 81.5906 94.3557 81.7068 94.3147C81.823 94.2703 81.9272 94.248 82.0195 94.248C82.1699 94.248 82.2964 94.2822 82.3989 94.3506C82.5049 94.4155 82.5647 94.5283 82.5784 94.689C82.592 94.8462 82.563 95.0444 82.4912 95.2837C82.4229 95.5229 82.3271 95.7776 82.2041 96.0476C82.0845 96.3142 81.9443 96.5842 81.7837 96.8577C81.623 97.1311 81.459 97.3823 81.2915 97.6113C80.9736 98.042 80.6848 98.3992 80.425 98.6829C80.1687 98.9666 79.9431 99.1956 79.7483 99.3699C79.5535 99.5442 79.3911 99.6741 79.2612 99.7595C79.1313 99.8416 79.0356 99.8979 78.9741 99.9287L78.2615 101.636ZM82.2605 94.7659C82.2571 94.7078 82.2434 94.6582 82.2195 94.6172C82.199 94.5728 82.1545 94.5505 82.0862 94.5505C82.0452 94.5505 81.9922 94.5608 81.9272 94.5813C81.8623 94.5984 81.7854 94.6377 81.6965 94.6992C81.6111 94.7607 81.5137 94.8513 81.4043 94.9709C81.2949 95.0906 81.1719 95.2512 81.0352 95.4529C80.9019 95.6545 80.7549 95.9041 80.5942 96.2014C80.437 96.4988 80.2678 96.8577 80.0867 97.2781C79.967 97.5447 79.8286 97.8694 79.6714 98.2522C79.5142 98.6316 79.3416 99.0435 79.1536 99.4878C79.3142 99.375 79.4817 99.2349 79.656 99.0674C79.8337 98.8965 80.0115 98.7102 80.1892 98.5085C80.3704 98.3035 80.5481 98.0864 80.7224 97.8574C80.8967 97.6284 81.0625 97.396 81.2197 97.1602C81.377 96.9243 81.5205 96.6902 81.6504 96.4578C81.7837 96.2253 81.8965 96.0049 81.9888 95.7964C82.0845 95.5845 82.1562 95.3914 82.2041 95.217C82.252 95.0393 82.2708 94.8889 82.2605 94.7659ZM83.8345 100.605C83.8481 100.609 83.8618 100.611 83.8755 100.611C83.8892 100.611 83.9045 100.611 83.9216 100.611C84.0173 100.611 84.1045 100.602 84.1831 100.585C84.2617 100.564 84.3335 100.534 84.3984 100.493C84.4668 100.452 84.5317 100.399 84.5933 100.334C84.6548 100.265 84.7146 100.183 84.7727 100.088L84.9573 100.231C84.7932 100.464 84.624 100.626 84.4497 100.718C84.2754 100.811 84.0908 100.857 83.896 100.857C83.8242 100.857 83.761 100.85 83.7063 100.836C83.5593 101.082 83.4021 101.292 83.2346 101.467C83.0671 101.638 82.8962 101.778 82.7219 101.887C82.5476 101.997 82.375 102.075 82.2041 102.123C82.0332 102.174 81.8743 102.2 81.7273 102.2C81.5769 102.2 81.4368 102.173 81.3069 102.118C81.1804 102.067 81.071 101.991 80.9788 101.892C80.8865 101.793 80.8147 101.675 80.7634 101.539C80.7122 101.402 80.6865 101.248 80.6865 101.077C80.6865 100.906 80.7139 100.732 80.7686 100.554C80.8232 100.376 80.8967 100.2 80.989 100.026C81.0847 99.8518 81.1958 99.6843 81.3223 99.5237C81.4487 99.3596 81.5854 99.2075 81.7324 99.0674C81.8794 98.9272 82.0315 98.8008 82.1887 98.688C82.3459 98.5752 82.5032 98.4829 82.6604 98.4111L82.8245 98.6265C82.6433 98.7563 82.4587 98.9204 82.2708 99.1187C82.0862 99.3169 81.917 99.5339 81.7632 99.7698C81.6128 100.006 81.488 100.252 81.3889 100.508C81.2932 100.761 81.2454 101.007 81.2454 101.246C81.2454 101.462 81.2932 101.629 81.3889 101.749C81.4846 101.865 81.6299 101.923 81.8247 101.923C81.9751 101.923 82.1238 101.892 82.2708 101.831C82.4177 101.769 82.5613 101.686 82.7014 101.58C82.8416 101.474 82.9766 101.349 83.1064 101.205C83.2363 101.058 83.3594 100.903 83.4756 100.739C83.3765 100.681 83.2893 100.604 83.2141 100.508C83.1389 100.409 83.0757 100.298 83.0244 100.175C82.9731 100.048 82.9338 99.9133 82.9065 99.7698C82.8826 99.6262 82.8706 99.4792 82.8706 99.3289C82.8706 99.1785 82.8894 99.0366 82.927 98.9033C82.9646 98.77 83.0159 98.6538 83.0808 98.5547C83.1492 98.4521 83.2278 98.3718 83.3167 98.3137C83.4055 98.2556 83.5029 98.2266 83.6089 98.2266C83.7046 98.2266 83.79 98.2522 83.8652 98.3035C83.9404 98.3513 84.0037 98.4197 84.0549 98.5085C84.1062 98.594 84.1455 98.6965 84.1729 98.8162C84.2002 98.9358 84.2139 99.064 84.2139 99.2007C84.2139 99.3032 84.2053 99.416 84.1882 99.5391C84.1711 99.6621 84.1455 99.7869 84.1113 99.9133C84.0806 100.036 84.0413 100.159 83.9934 100.282C83.949 100.402 83.896 100.51 83.8345 100.605ZM83.1372 99.3289C83.1372 99.428 83.1458 99.5356 83.1628 99.6519C83.1799 99.7681 83.2073 99.8809 83.2449 99.9902C83.2825 100.1 83.3303 100.202 83.3884 100.298C83.4465 100.39 83.5183 100.464 83.6038 100.518C83.6653 100.399 83.7166 100.277 83.7576 100.154C83.802 100.028 83.8379 99.9065 83.8652 99.7903C83.896 99.6741 83.9165 99.5664 83.9268 99.4673C83.9404 99.3647 83.9473 99.2759 83.9473 99.2007C83.9473 99.0981 83.9387 99.0042 83.9216 98.9187C83.9045 98.8333 83.8806 98.7598 83.8499 98.6982C83.8225 98.6333 83.7866 98.5837 83.7422 98.5496C83.7012 98.512 83.655 98.4932 83.6038 98.4932C83.5354 98.4932 83.4722 98.5171 83.4141 98.5649C83.356 98.6094 83.3064 98.6709 83.2654 98.7495C83.2244 98.8247 83.1919 98.9136 83.168 99.0161C83.1475 99.1152 83.1372 99.2195 83.1372 99.3289ZM87.0798 97.4524C87.0798 97.5208 87.0627 97.5925 87.0286 97.6677C86.9944 97.7395 86.95 97.8044 86.8953 97.8625C86.844 97.9207 86.7859 97.9685 86.7209 98.0061C86.656 98.0437 86.5911 98.0625 86.5261 98.0625C86.468 98.0625 86.4236 98.042 86.3928 98.001C86.3621 97.9565 86.3467 97.9036 86.3467 97.842C86.3467 97.7874 86.3569 97.7224 86.3774 97.6472C86.3979 97.572 86.4287 97.502 86.4697 97.437C86.5107 97.3687 86.5603 97.3105 86.6184 97.2627C86.6765 97.2148 86.7432 97.1909 86.8184 97.1909C86.8901 97.1909 86.9517 97.2183 87.0029 97.2729C87.0542 97.3276 87.0798 97.3875 87.0798 97.4524ZM86.1211 98.5906C86.0767 98.6794 86.0134 98.7974 85.9314 98.9443C85.8528 99.0879 85.7673 99.2468 85.675 99.4211C85.5828 99.592 85.4888 99.7732 85.3931 99.9646C85.2974 100.153 85.2102 100.337 85.1316 100.518C85.0564 100.696 84.9949 100.864 84.947 101.021C84.8992 101.178 84.8752 101.311 84.8752 101.421C84.8752 101.52 84.8958 101.588 84.9368 101.626C84.9778 101.66 85.0359 101.677 85.1111 101.677C85.2512 101.677 85.3879 101.631 85.5212 101.539C85.6545 101.446 85.7861 101.327 85.916 101.18C86.0493 101.029 86.1792 100.858 86.3057 100.667C86.4321 100.476 86.5586 100.282 86.6851 100.088L86.8696 100.231C86.7705 100.409 86.6577 100.599 86.5312 100.8C86.4082 101.002 86.2698 101.19 86.116 101.364C85.9622 101.535 85.793 101.677 85.6084 101.79C85.4238 101.903 85.2222 101.959 85.0034 101.959C84.7983 101.959 84.6411 101.897 84.5317 101.774C84.4224 101.651 84.3677 101.492 84.3677 101.298C84.3677 101.069 84.4207 100.829 84.5266 100.58C84.6326 100.33 84.7642 100.084 84.9214 99.8416C85.082 99.5955 85.2546 99.3596 85.4392 99.134C85.6272 98.9084 85.7998 98.7034 85.957 98.5188L86.1211 98.5906ZM90.802 97.7703C90.8362 97.7122 90.896 97.6113 90.9814 97.4678C91.0703 97.3242 91.1729 97.1653 91.2891 96.991C91.4087 96.8167 91.5369 96.6423 91.6736 96.468C91.8137 96.2903 91.9504 96.1399 92.0837 96.0168L92.3145 96.1553C92.1675 96.3979 92.0171 96.656 91.8633 96.9294C91.7095 97.1995 91.5574 97.4797 91.407 97.7703H93.0784L92.9758 98.0369H91.2686C91.1147 98.3445 90.9695 98.6504 90.8328 98.9546C90.6995 99.2588 90.5815 99.5493 90.479 99.8262C90.3765 100.103 90.2961 100.363 90.238 100.605C90.1799 100.845 90.1509 101.053 90.1509 101.231C90.1509 101.453 90.2021 101.614 90.3047 101.713C90.4072 101.809 90.5337 101.856 90.6841 101.856C90.8174 101.856 90.9541 101.817 91.0942 101.739C91.2344 101.656 91.3711 101.554 91.5044 101.431C91.6411 101.308 91.7693 101.173 91.8889 101.026C92.012 100.879 92.1196 100.74 92.2119 100.611C92.3076 100.481 92.3862 100.368 92.4478 100.272C92.5093 100.173 92.5469 100.112 92.5605 100.088L92.7502 100.231C92.6306 100.429 92.4956 100.64 92.3452 100.862C92.1948 101.084 92.0273 101.291 91.8428 101.482C91.6616 101.67 91.4634 101.827 91.248 101.954C91.0327 102.077 90.8003 102.138 90.5508 102.138C90.397 102.138 90.262 102.111 90.1458 102.056C90.033 102.002 89.9373 101.927 89.8586 101.831C89.78 101.732 89.7219 101.615 89.6843 101.482C89.6433 101.349 89.6228 101.204 89.6228 101.046C89.6228 100.944 89.6399 100.799 89.6741 100.611C89.7048 100.423 89.7595 100.2 89.8381 99.9441C89.9167 99.6843 90.021 99.3938 90.1509 99.0725C90.2842 98.7512 90.4517 98.406 90.6533 98.0369H89.8022L89.9048 97.7703H90.802ZM96.6365 98.5906C96.592 98.6794 96.5288 98.7957 96.4468 98.9392C96.3682 99.0828 96.2827 99.2417 96.1904 99.416C96.0981 99.5869 96.0042 99.7664 95.9084 99.9543C95.8162 100.142 95.7307 100.327 95.6521 100.508C95.5769 100.686 95.5137 100.855 95.4624 101.016C95.4146 101.173 95.3906 101.306 95.3906 101.416C95.3906 101.525 95.4111 101.597 95.4521 101.631C95.4966 101.662 95.553 101.677 95.6213 101.677C95.7205 101.677 95.8213 101.648 95.9238 101.59C96.0298 101.532 96.1323 101.457 96.2314 101.364C96.334 101.272 96.4331 101.168 96.5288 101.052C96.6245 100.935 96.7134 100.819 96.7954 100.703C96.8809 100.583 96.9578 100.47 97.0261 100.365C97.0945 100.255 97.1526 100.163 97.2004 100.088L97.385 100.231C97.3269 100.341 97.2585 100.458 97.1799 100.585C97.1013 100.711 97.0142 100.84 96.9185 100.969C96.8262 101.096 96.7253 101.219 96.616 101.339C96.5066 101.458 96.3904 101.564 96.2673 101.656C96.1477 101.749 96.0212 101.822 95.8879 101.877C95.7546 101.932 95.6179 101.959 95.4778 101.959C95.2727 101.959 95.1223 101.897 95.0266 101.774C94.9309 101.651 94.8831 101.492 94.8831 101.298C94.8831 101.284 94.8831 101.255 94.8831 101.21C94.8865 101.163 94.8916 101.125 94.8984 101.098C94.7275 101.313 94.5635 101.491 94.4062 101.631C94.2524 101.771 94.1021 101.882 93.9551 101.964C93.8115 102.046 93.6714 102.103 93.5347 102.133C93.4014 102.167 93.2732 102.185 93.1501 102.185C93.0203 102.185 92.8972 102.162 92.781 102.118C92.6682 102.077 92.5691 102.015 92.4836 101.933C92.3948 101.851 92.3264 101.75 92.2786 101.631C92.2273 101.511 92.2017 101.373 92.2017 101.216C92.2017 101.021 92.2461 100.799 92.335 100.549C92.4204 100.296 92.5742 100.024 92.7964 99.7339C92.9844 99.4844 93.1792 99.2742 93.3809 99.1033C93.5859 98.9324 93.7859 98.7957 93.9807 98.6931C94.179 98.5872 94.3669 98.512 94.5447 98.4675C94.7224 98.4231 94.8813 98.4009 95.0215 98.4009C95.3359 98.4009 95.5735 98.4539 95.7341 98.5598C95.8948 98.6624 95.9922 98.8213 96.0264 99.0366C96.0947 98.9512 96.1665 98.8657 96.2417 98.7803C96.3169 98.6948 96.3938 98.6077 96.4724 98.5188L96.6365 98.5906ZM95.0625 100.539C95.1069 100.467 95.1616 100.376 95.2266 100.267C95.2915 100.154 95.3599 100.04 95.4316 99.9236C95.5034 99.804 95.5735 99.6895 95.6418 99.5801C95.7102 99.4707 95.77 99.3784 95.8213 99.3032C95.8213 99.2725 95.8162 99.2229 95.8059 99.1545C95.7991 99.0862 95.7769 99.0178 95.7393 98.9495C95.7017 98.8777 95.6418 98.8162 95.5598 98.7649C95.4778 98.7136 95.3633 98.688 95.2163 98.688C95.1104 98.688 94.9907 98.7051 94.8574 98.7393C94.7275 98.77 94.5874 98.8247 94.437 98.9033C94.29 98.9785 94.1379 99.0793 93.9807 99.2058C93.8235 99.3323 93.6663 99.4895 93.509 99.6775C93.2732 99.9612 93.0903 100.247 92.9604 100.534C92.834 100.817 92.7708 101.074 92.7708 101.303C92.7708 101.498 92.8152 101.648 92.9041 101.754C92.9929 101.86 93.1194 101.913 93.2834 101.913C93.4714 101.913 93.6475 101.872 93.8115 101.79C93.9756 101.704 94.1294 101.595 94.2729 101.462C94.4165 101.328 94.5532 101.181 94.6831 101.021C94.813 100.857 94.9395 100.696 95.0625 100.539ZM95.2625 96.9602C95.1873 96.9602 95.1155 96.9875 95.0471 97.0422C94.9822 97.0969 94.9258 97.1567 94.8779 97.2217C94.8164 97.2969 94.7617 97.3823 94.7139 97.478L94.5396 97.396C94.5977 97.2456 94.6677 97.1123 94.7498 96.9961C94.7839 96.9448 94.8215 96.8953 94.8625 96.8474C94.907 96.7996 94.9548 96.7568 95.0061 96.7192C95.0574 96.6816 95.1121 96.6526 95.1702 96.6321C95.2283 96.6082 95.2915 96.5962 95.3599 96.5962C95.4658 96.5962 95.5513 96.6287 95.6162 96.6936C95.6846 96.7551 95.7444 96.8252 95.7957 96.9038C95.8503 96.979 95.9016 97.0491 95.9495 97.114C95.9973 97.1755 96.0537 97.2063 96.1187 97.2063C96.1938 97.2063 96.2639 97.1807 96.3289 97.1294C96.3938 97.0747 96.4519 97.0149 96.5032 96.95C96.5613 96.8748 96.616 96.7876 96.6672 96.6885L96.8416 96.7705C96.7834 96.9209 96.7134 97.0542 96.6313 97.1704C96.5972 97.2217 96.5579 97.2712 96.5134 97.3191C96.4724 97.3669 96.4263 97.4097 96.375 97.4473C96.3237 97.4849 96.2673 97.5156 96.2058 97.5396C96.1477 97.5601 96.0862 97.5703 96.0212 97.5703C95.9187 97.5703 95.8333 97.5396 95.7649 97.478C95.6965 97.4131 95.635 97.343 95.5803 97.2678C95.5291 97.1892 95.4795 97.1191 95.4316 97.0576C95.3838 96.9927 95.3274 96.9602 95.2625 96.9602ZM100.097 100.605C100.111 100.609 100.125 100.611 100.138 100.611C100.152 100.611 100.167 100.611 100.184 100.611C100.28 100.611 100.367 100.602 100.446 100.585C100.524 100.564 100.596 100.534 100.661 100.493C100.729 100.452 100.794 100.399 100.856 100.334C100.917 100.265 100.977 100.183 101.035 100.088L101.22 100.231C101.056 100.464 100.887 100.626 100.712 100.718C100.538 100.811 100.354 100.857 100.159 100.857C100.087 100.857 100.024 100.85 99.969 100.836C99.822 101.082 99.6648 101.292 99.4973 101.467C99.3298 101.638 99.1589 101.778 98.9846 101.887C98.8103 101.997 98.6377 102.075 98.4668 102.123C98.2959 102.174 98.137 102.2 97.99 102.2C97.8396 102.2 97.6995 102.173 97.5696 102.118C97.4431 102.067 97.3337 101.991 97.2415 101.892C97.1492 101.793 97.0774 101.675 97.0261 101.539C96.9749 101.402 96.9492 101.248 96.9492 101.077C96.9492 100.906 96.9766 100.732 97.0312 100.554C97.0859 100.376 97.1594 100.2 97.2517 100.026C97.3474 99.8518 97.4585 99.6843 97.585 99.5237C97.7114 99.3596 97.8481 99.2075 97.9951 99.0674C98.1421 98.9272 98.2942 98.8008 98.4514 98.688C98.6086 98.5752 98.7659 98.4829 98.9231 98.4111L99.0872 98.6265C98.906 98.7563 98.7214 98.9204 98.5334 99.1187C98.3489 99.3169 98.1797 99.5339 98.0259 99.7698C97.8755 100.006 97.7507 100.252 97.6516 100.508C97.5559 100.761 97.5081 101.007 97.5081 101.246C97.5081 101.462 97.5559 101.629 97.6516 101.749C97.7473 101.865 97.8926 101.923 98.0874 101.923C98.2378 101.923 98.3865 101.892 98.5334 101.831C98.6804 101.769 98.824 101.686 98.9641 101.58C99.1042 101.474 99.2393 101.349 99.3691 101.205C99.499 101.058 99.6221 100.903 99.7383 100.739C99.6392 100.681 99.552 100.604 99.4768 100.508C99.4016 100.409 99.3384 100.298 99.2871 100.175C99.2358 100.048 99.1965 99.9133 99.1692 99.7698C99.1453 99.6262 99.1333 99.4792 99.1333 99.3289C99.1333 99.1785 99.1521 99.0366 99.1897 98.9033C99.2273 98.77 99.2786 98.6538 99.3435 98.5547C99.4119 98.4521 99.4905 98.3718 99.5793 98.3137C99.6682 98.2556 99.7656 98.2266 99.8716 98.2266C99.9673 98.2266 100.053 98.2522 100.128 98.3035C100.203 98.3513 100.266 98.4197 100.318 98.5085C100.369 98.594 100.408 98.6965 100.436 98.8162C100.463 98.9358 100.477 99.064 100.477 99.2007C100.477 99.3032 100.468 99.416 100.451 99.5391C100.434 99.6621 100.408 99.7869 100.374 99.9133C100.343 100.036 100.304 100.159 100.256 100.282C100.212 100.402 100.159 100.51 100.097 100.605ZM99.3999 99.3289C99.3999 99.428 99.4084 99.5356 99.4255 99.6519C99.4426 99.7681 99.47 99.8809 99.5076 99.9902C99.5452 100.1 99.593 100.202 99.6511 100.298C99.7092 100.39 99.781 100.464 99.8665 100.518C99.928 100.399 99.9792 100.277 100.02 100.154C100.065 100.028 100.101 99.9065 100.128 99.7903C100.159 99.6741 100.179 99.5664 100.189 99.4673C100.203 99.3647 100.21 99.2759 100.21 99.2007C100.21 99.0981 100.201 99.0042 100.184 98.9187C100.167 98.8333 100.143 98.7598 100.113 98.6982C100.085 98.6333 100.049 98.5837 100.005 98.5496C99.9639 98.512 99.9177 98.4932 99.8665 98.4932C99.7981 98.4932 99.7349 98.5171 99.6768 98.5649C99.6187 98.6094 99.5691 98.6709 99.5281 98.7495C99.4871 98.8247 99.4546 98.9136 99.4307 99.0161C99.4102 99.1152 99.3999 99.2195 99.3999 99.3289ZM104.173 101.636C104.282 101.721 104.428 101.764 104.609 101.764C104.804 101.764 104.987 101.733 105.157 101.672C105.332 101.61 105.494 101.53 105.645 101.431C105.795 101.328 105.933 101.216 106.06 101.093C106.186 100.969 106.299 100.846 106.398 100.723C106.501 100.597 106.59 100.479 106.665 100.37C106.743 100.257 106.807 100.163 106.854 100.088H107.142C107.094 100.17 107.027 100.276 106.942 100.406C106.86 100.532 106.76 100.667 106.644 100.811C106.531 100.954 106.403 101.099 106.26 101.246C106.116 101.39 105.957 101.52 105.783 101.636C105.612 101.752 105.429 101.848 105.234 101.923C105.04 101.995 104.833 102.031 104.614 102.031C104.518 102.031 104.424 102.021 104.332 102C104.243 101.976 104.156 101.94 104.071 101.892C103.958 102.169 103.848 102.441 103.742 102.708C103.633 102.974 103.531 103.227 103.435 103.466C103.336 103.706 103.245 103.926 103.163 104.128C103.081 104.329 103.009 104.504 102.948 104.651C102.886 104.801 102.838 104.919 102.804 105.004C102.77 105.093 102.751 105.139 102.748 105.143L102.209 104.876C102.384 104.466 102.541 104.09 102.681 103.748C102.818 103.406 102.946 103.087 103.066 102.79C103.182 102.492 103.293 102.214 103.399 101.954C103.501 101.691 103.606 101.436 103.712 101.19C103.657 101.111 103.618 101.034 103.594 100.959C103.566 100.884 103.549 100.823 103.542 100.775C103.536 100.696 103.558 100.631 103.609 100.58C103.657 100.525 103.72 100.498 103.799 100.498C103.864 100.498 103.924 100.52 103.978 100.564C104.081 100.318 104.171 100.103 104.25 99.9185C104.332 99.7305 104.4 99.5732 104.455 99.4468C104.517 99.2998 104.571 99.1716 104.619 99.0623C104.917 98.3616 105.192 97.7566 105.445 97.2473C105.701 96.7346 105.937 96.3005 106.152 95.9451C106.367 95.5862 106.564 95.2974 106.742 95.0786C106.919 94.8564 107.08 94.6838 107.224 94.5608C107.371 94.4377 107.502 94.3557 107.618 94.3147C107.735 94.2703 107.839 94.248 107.931 94.248C108.082 94.248 108.208 94.2822 108.311 94.3506C108.417 94.4155 108.476 94.5283 108.49 94.689C108.504 94.8462 108.475 95.0444 108.403 95.2837C108.334 95.5229 108.239 95.7776 108.116 96.0476C107.996 96.3142 107.856 96.5842 107.695 96.8577C107.535 97.1311 107.371 97.3823 107.203 97.6113C106.885 98.042 106.596 98.3992 106.337 98.6829C106.08 98.9666 105.855 99.1956 105.66 99.3699C105.465 99.5442 105.303 99.6741 105.173 99.7595C105.043 99.8416 104.947 99.8979 104.886 99.9287L104.173 101.636ZM108.172 94.7659C108.169 94.7078 108.155 94.6582 108.131 94.6172C108.111 94.5728 108.066 94.5505 107.998 94.5505C107.957 94.5505 107.904 94.5608 107.839 94.5813C107.774 94.5984 107.697 94.6377 107.608 94.6992C107.523 94.7607 107.425 94.8513 107.316 94.9709C107.207 95.0906 107.083 95.2512 106.947 95.4529C106.813 95.6545 106.667 95.9041 106.506 96.2014C106.349 96.4988 106.179 96.8577 105.998 97.2781C105.879 97.5447 105.74 97.8694 105.583 98.2522C105.426 98.6316 105.253 99.0435 105.065 99.4878C105.226 99.375 105.393 99.2349 105.568 99.0674C105.745 98.8965 105.923 98.7102 106.101 98.5085C106.282 98.3035 106.46 98.0864 106.634 97.8574C106.808 97.6284 106.974 97.396 107.131 97.1602C107.289 96.9243 107.432 96.6902 107.562 96.4578C107.695 96.2253 107.808 96.0049 107.9 95.7964C107.996 95.5845 108.068 95.3914 108.116 95.217C108.164 95.0393 108.182 94.8889 108.172 94.7659ZM110.93 98.5906C110.886 98.6794 110.823 98.7957 110.741 98.9392C110.662 99.0828 110.577 99.2417 110.484 99.416C110.392 99.5869 110.298 99.7664 110.202 99.9543C110.11 100.142 110.025 100.327 109.946 100.508C109.871 100.686 109.808 100.855 109.756 101.016C109.708 101.173 109.685 101.306 109.685 101.416C109.685 101.525 109.705 101.597 109.746 101.631C109.791 101.662 109.847 101.677 109.915 101.677C110.014 101.677 110.115 101.648 110.218 101.59C110.324 101.532 110.426 101.457 110.525 101.364C110.628 101.272 110.727 101.168 110.823 101.052C110.918 100.935 111.007 100.819 111.089 100.703C111.175 100.583 111.252 100.47 111.32 100.365C111.388 100.255 111.447 100.163 111.494 100.088L111.679 100.231C111.621 100.341 111.552 100.458 111.474 100.585C111.395 100.711 111.308 100.84 111.212 100.969C111.12 101.096 111.019 101.219 110.91 101.339C110.801 101.458 110.684 101.564 110.561 101.656C110.442 101.749 110.315 101.822 110.182 101.877C110.049 101.932 109.912 101.959 109.772 101.959C109.567 101.959 109.416 101.897 109.321 101.774C109.225 101.651 109.177 101.492 109.177 101.298C109.177 101.284 109.177 101.255 109.177 101.21C109.18 101.163 109.186 101.125 109.192 101.098C109.021 101.313 108.857 101.491 108.7 101.631C108.546 101.771 108.396 101.882 108.249 101.964C108.105 102.046 107.965 102.103 107.829 102.133C107.695 102.167 107.567 102.185 107.444 102.185C107.314 102.185 107.191 102.162 107.075 102.118C106.962 102.077 106.863 102.015 106.778 101.933C106.689 101.851 106.62 101.75 106.573 101.631C106.521 101.511 106.496 101.373 106.496 101.216C106.496 101.021 106.54 100.799 106.629 100.549C106.714 100.296 106.868 100.024 107.09 99.7339C107.278 99.4844 107.473 99.2742 107.675 99.1033C107.88 98.9324 108.08 98.7957 108.275 98.6931C108.473 98.5872 108.661 98.512 108.839 98.4675C109.016 98.4231 109.175 98.4009 109.315 98.4009C109.63 98.4009 109.867 98.4539 110.028 98.5598C110.189 98.6624 110.286 98.8213 110.32 99.0366C110.389 98.9512 110.46 98.8657 110.536 98.7803C110.611 98.6948 110.688 98.6077 110.766 98.5188L110.93 98.5906ZM109.356 100.539C109.401 100.467 109.456 100.376 109.521 100.267C109.585 100.154 109.654 100.04 109.726 99.9236C109.797 99.804 109.867 99.6895 109.936 99.5801C110.004 99.4707 110.064 99.3784 110.115 99.3032C110.115 99.2725 110.11 99.2229 110.1 99.1545C110.093 99.0862 110.071 99.0178 110.033 98.9495C109.996 98.8777 109.936 98.8162 109.854 98.7649C109.772 98.7136 109.657 98.688 109.51 98.688C109.404 98.688 109.285 98.7051 109.151 98.7393C109.021 98.77 108.881 98.8247 108.731 98.9033C108.584 98.9785 108.432 99.0793 108.275 99.2058C108.117 99.3323 107.96 99.4895 107.803 99.6775C107.567 99.9612 107.384 100.247 107.254 100.534C107.128 100.817 107.065 101.074 107.065 101.303C107.065 101.498 107.109 101.648 107.198 101.754C107.287 101.86 107.413 101.913 107.577 101.913C107.765 101.913 107.941 101.872 108.105 101.79C108.27 101.704 108.423 101.595 108.567 101.462C108.71 101.328 108.847 101.181 108.977 101.021C109.107 100.857 109.233 100.696 109.356 100.539ZM109.669 97.6113H109.315L110.228 96.6167H110.869L109.669 97.6113ZM114.391 98.8879C114.412 98.8333 114.422 98.7751 114.422 98.7136C114.422 98.6042 114.377 98.5188 114.289 98.4573C114.203 98.3923 114.066 98.3599 113.878 98.3599C113.725 98.3599 113.569 98.394 113.412 98.4624C113.258 98.5273 113.109 98.6179 112.966 98.7341C112.822 98.8503 112.687 98.9888 112.561 99.1494C112.438 99.3101 112.33 99.4844 112.238 99.6724C112.149 99.8604 112.077 100.06 112.022 100.272C111.971 100.481 111.946 100.691 111.946 100.903C111.946 101.074 111.964 101.219 112.002 101.339C112.04 101.458 112.093 101.556 112.161 101.631C112.229 101.706 112.311 101.761 112.407 101.795C112.503 101.826 112.61 101.841 112.73 101.841C112.966 101.841 113.195 101.788 113.417 101.682C113.639 101.576 113.849 101.439 114.048 101.272C114.249 101.101 114.434 100.911 114.601 100.703C114.772 100.494 114.923 100.289 115.052 100.088L115.242 100.231C115.058 100.542 114.861 100.816 114.653 101.052C114.444 101.284 114.23 101.479 114.012 101.636C113.793 101.793 113.571 101.911 113.345 101.99C113.12 102.068 112.899 102.108 112.684 102.108C112.513 102.108 112.349 102.082 112.192 102.031C112.038 101.979 111.901 101.903 111.781 101.8C111.665 101.694 111.571 101.559 111.5 101.395C111.431 101.231 111.397 101.036 111.397 100.811C111.397 100.544 111.435 100.293 111.51 100.057C111.588 99.8176 111.691 99.5972 111.817 99.3955C111.947 99.1938 112.096 99.0127 112.263 98.8521C112.431 98.688 112.605 98.5496 112.786 98.4368C112.971 98.324 113.156 98.2385 113.34 98.1804C113.528 98.1189 113.704 98.0881 113.868 98.0881C114.036 98.0881 114.172 98.1121 114.278 98.1599C114.384 98.2043 114.468 98.259 114.53 98.324C114.591 98.3889 114.632 98.4573 114.653 98.5291C114.677 98.6008 114.688 98.6624 114.688 98.7136C114.688 98.7957 114.677 98.8828 114.653 98.9751C114.629 99.0674 114.594 99.1528 114.55 99.2314C114.509 99.3066 114.456 99.3699 114.391 99.4211C114.33 99.4724 114.261 99.498 114.186 99.498C114.111 99.498 114.046 99.4741 113.991 99.4263C113.937 99.375 113.909 99.3118 113.909 99.2366C113.909 99.2332 113.911 99.2126 113.914 99.175C113.921 99.1375 113.938 99.0981 113.966 99.0571C113.993 99.0127 114.034 98.9734 114.089 98.9392C114.147 98.905 114.227 98.8879 114.33 98.8879H114.391ZM117.36 97.4524C117.36 97.5208 117.343 97.5925 117.308 97.6677C117.274 97.7395 117.23 97.8044 117.175 97.8625C117.124 97.9207 117.066 97.9685 117.001 98.0061C116.936 98.0437 116.871 98.0625 116.806 98.0625C116.748 98.0625 116.703 98.042 116.673 98.001C116.642 97.9565 116.626 97.9036 116.626 97.842C116.626 97.7874 116.637 97.7224 116.657 97.6472C116.678 97.572 116.708 97.502 116.75 97.437C116.791 97.3687 116.84 97.3105 116.898 97.2627C116.956 97.2148 117.023 97.1909 117.098 97.1909C117.17 97.1909 117.231 97.2183 117.283 97.2729C117.334 97.3276 117.36 97.3875 117.36 97.4524ZM116.401 98.5906C116.356 98.6794 116.293 98.7974 116.211 98.9443C116.133 99.0879 116.047 99.2468 115.955 99.4211C115.863 99.592 115.769 99.7732 115.673 99.9646C115.577 100.153 115.49 100.337 115.411 100.518C115.336 100.696 115.275 100.864 115.227 101.021C115.179 101.178 115.155 101.311 115.155 101.421C115.155 101.52 115.176 101.588 115.217 101.626C115.258 101.66 115.316 101.677 115.391 101.677C115.531 101.677 115.668 101.631 115.801 101.539C115.934 101.446 116.066 101.327 116.196 101.18C116.329 101.029 116.459 100.858 116.585 100.667C116.712 100.476 116.838 100.282 116.965 100.088L117.149 100.231C117.05 100.409 116.938 100.599 116.811 100.8C116.688 101.002 116.55 101.19 116.396 101.364C116.242 101.535 116.073 101.677 115.888 101.79C115.704 101.903 115.502 101.959 115.283 101.959C115.078 101.959 114.921 101.897 114.812 101.774C114.702 101.651 114.647 101.492 114.647 101.298C114.647 101.069 114.7 100.829 114.806 100.58C114.912 100.33 115.044 100.084 115.201 99.8416C115.362 99.5955 115.534 99.3596 115.719 99.134C115.907 98.9084 116.08 98.7034 116.237 98.5188L116.401 98.5906ZM120.677 94.5403C120.796 94.5403 120.896 94.5693 120.974 94.6274C121.056 94.6855 121.097 94.7915 121.097 94.9453C121.097 95.0513 121.075 95.1777 121.031 95.3247C120.99 95.4717 120.931 95.6323 120.856 95.8066C120.784 95.9775 120.699 96.1587 120.6 96.3501C120.501 96.5381 120.393 96.7261 120.277 96.9141C120.164 97.1021 120.044 97.2849 119.918 97.4626C119.795 97.6404 119.672 97.8044 119.549 97.9548C119.303 98.259 119.089 98.5154 118.908 98.7239C118.73 98.9324 118.576 99.1101 118.447 99.2571C118.317 99.4006 118.207 99.5186 118.118 99.6108C118.03 99.6997 117.951 99.7766 117.883 99.8416C117.814 99.9065 117.751 99.9663 117.693 100.021C117.635 100.072 117.575 100.13 117.513 100.195C117.486 100.325 117.472 100.45 117.472 100.57C117.476 100.686 117.478 100.793 117.478 100.893C117.478 101.19 117.525 101.41 117.621 101.554C117.717 101.698 117.852 101.769 118.026 101.769C118.142 101.769 118.259 101.74 118.375 101.682C118.494 101.621 118.612 101.542 118.729 101.446C118.845 101.351 118.958 101.243 119.067 101.123C119.176 101 119.279 100.877 119.375 100.754C119.474 100.628 119.562 100.506 119.641 100.39C119.72 100.274 119.788 100.173 119.846 100.088L120.036 100.231C120.026 100.245 119.991 100.3 119.933 100.395C119.879 100.488 119.805 100.6 119.713 100.734C119.621 100.867 119.511 101.01 119.385 101.164C119.258 101.315 119.122 101.455 118.975 101.585C118.828 101.715 118.672 101.822 118.508 101.908C118.347 101.993 118.183 102.036 118.016 102.036C117.876 102.036 117.741 102.01 117.611 101.959C117.484 101.904 117.372 101.821 117.272 101.708C117.177 101.592 117.098 101.445 117.037 101.267C116.979 101.089 116.949 100.875 116.949 100.626C116.949 100.315 116.985 99.9902 117.057 99.6519C117.132 99.3101 117.233 98.9683 117.36 98.6265C117.486 98.2812 117.635 97.9412 117.806 97.6062C117.977 97.2712 118.158 96.9534 118.349 96.6526C118.544 96.3484 118.746 96.0681 118.954 95.8118C119.166 95.552 119.373 95.3281 119.574 95.1401C119.78 94.9521 119.976 94.8052 120.164 94.6992C120.352 94.5933 120.523 94.5403 120.677 94.5403ZM117.606 99.739C117.896 99.4382 118.177 99.134 118.447 98.8264C118.72 98.5154 118.975 98.2095 119.21 97.9087C119.45 97.6045 119.668 97.3105 119.867 97.0269C120.065 96.7397 120.234 96.4697 120.374 96.2168C120.514 95.9639 120.624 95.7332 120.702 95.5247C120.781 95.3162 120.82 95.1367 120.82 94.9863C120.82 94.959 120.807 94.9231 120.779 94.8787C120.752 94.8308 120.719 94.8069 120.682 94.8069C120.576 94.8069 120.436 94.877 120.261 95.0171C120.087 95.1572 119.897 95.3486 119.692 95.5913C119.491 95.8306 119.281 96.1108 119.062 96.4321C118.846 96.7534 118.643 97.0969 118.452 97.4626C118.26 97.8284 118.089 98.2061 117.939 98.5957C117.789 98.9854 117.677 99.3665 117.606 99.739Z" fill="#E33B01"/>
<defs>
<linearGradient id="paint0_linear_23_6" x1="75" y1="69" x2="1" y2="2.5" gradientUnits="userSpaceOnUse">
<stop stop-color="white"/>
<stop offset="1" stop-color="#EBEBEB"/>
</linearGradient>
<linearGradient id="paint1_linear_23_6" x1="62.2538" y1="39.1212" x2="87.3269" y2="73.7185" gradientUnits="userSpaceOnUse">
<stop stop-color="#FE8257"/>
<stop offset="1" stop-color="#D73701"/>
</linearGradient>
</defs>
</svg>
